<?xml version="1.0" encoding="UTF-8"?>
<svg id="Layer_1" data-name="Layer 1" xmlns="http://www.w3.org/2000/svg" viewBox="0 0 1526.48 96.83">
  <defs>
    <style>
      .cls-1 {
        stroke-width: 0px;
      }
    </style>
  </defs>
  <path class="cls-1" d="m1317.3,17.24h-15.62c-5.29,0-10.89-.48-16.12.25-4.21.59-7.88.91-12.2.88s-7.59,1.02-11.65,1.15c-35.34,1.12-70.76-.24-106.16-.98-17.08-.36-34.21-.71-51.22.83-15.9,1.44-31.61,4.54-47.5,6.01-52.32,4.85-104.09-8.55-154.17-21-17.46-4.34-35.67-5.2-53.59-3.72-28.92,2.37-55.86,12.79-84.42,16.85-33.31,4.74-67.08,3.11-100.6,3.11-13.97,0-28.66,1-42.42-.88-6.37-.87-13.37-.25-19.81-.25h-29.37c-8.67,0-17.03.1-25.59-.88-8.45-.96-17.06-.19-25.58-1.13-9.17-1.01-18.98-.32-28.22-.23-3.25.03-5.54-.62-8.66-1.06s-6.09.14-9.18-.35c-11.39-1.78-22.68-3.14-34.42-3.14-15.67,0-31.43-.39-47.09-.04-4.76.1-9.37,1.15-14.13,1.22-3.31.05-6.62-.33-9.9.21-6.66,1.09-12.93.25-19.61.82-6.62.57-13.28,1.88-20.03,2.32-21.83,1.41-46.57,2.76-67.63,8.36-12.9,3.43-25.64,8.11-38.96,8.87-21.57,1.23-41.37-8.56-62-11.84-6.54-1.04-13.68-2.1-20.37-2.02-5.89.07-11.29-1.13-17.24-1.11-1.7,0-3.57.19-5.26.04-2.09-.19-3.73-.97-5.79-1.23-2.1-.26-4.13.17-6.26-.19-2.25-.38-3.67-.86-5.94-.89-4.65-.07-8.41-1.19-13.01-1.12-4.28.07-7.68-1.15-12.08-1.13-3.79.02-7.57,0-11.36,0-3.47,0-6.93,0-10.4,0-2.01,0-4.2-.22-6.19-.04-2.12.18-3.9,1.04-6.05,1.23-6.25.55-12.42.71-18.49,2.45-3.79,1.08-7.34,1.92-11.26,2.72-2.66.54-7.29.98-9.56,2.31-3.36,1.97-1.82,7.13-1.82,9.97v56.28c0,29.61,5.1-47.13,5.1-17.52h2.91c6,.02,12.01.04,18.01.06,11.05.03,22.09.06,33.14.09,15.57.04,31.13.08,46.7.13,19.57.05,39.14.11,58.7.16l69.15.19c26.01.07,52.03.14,78.04.21,28.46.08,56.92.15,85.38.23l91.16.25c31.79.09,63.58.17,95.37.26s65.36.18,98.04.27c33.05.09,66.09.18,99.14.27,32.9.09,65.79.18,98.69.27,32.23.09,64.45.17,96.68.26s62.07.17,93.11.25c29.33.08,58.66.16,87.99.24,27.1.07,54.2.15,81.31.22,24.36.07,48.71.13,73.07.2l63.27.17c17.31.05,34.61.09,51.92.14,13,.04,26,.07,39.01.11l14.17.04c1.87,0,3.8.14,5.67.02,2.52-.17,4.32-.93,6.83-1.57,6.05-1.55,12.43.29,18.53-.98,6.68-1.39,12.38-6.72,14.21-13.29,1.14-4.07.87-8.39.59-12.61-.5-7.5-1-14.99-1.5-22.49-.11-1.66-.24-3.38-1.01-4.86-1.2-2.28-3.76-3.56-6.3-3.97s-5.13-.08-7.7.06c-7.11.39-14.29-.67-20.98-3.09-9.76-3.53-17.52-6.74-27.98-7.45-10.44-.71-20.88,1-31.08,3.06-13.63,2.76-27.34,6.22-41.24,5.59-16.27-.74-32.17-7.07-48.41-5.77-5.72.46-11.81.94-17.1,3.21-4.79,2.05-9.08,2.26-14.18,3.44-5.54,1.29-10.92,3.23-16.6,3.88-3.82.44-7.76.29-11.41,1.5"/>
  <path class="cls-1" d="m1498,27.76c-.15-.13-3.7-3.56-2.98-3.52-2.94-.18-6.04-1.89-8.78-2.51-3-.68-6.13-1.04-9.13-1.66-6.47-1.35-14.67-.56-21.62-.56h-44.57c-7.43,0-14.86,0-22.29,0-7.3,0-13.44-1.94-20.73-2.32-8.12-.42-16.49.06-24.63.06-8.66,0-17.32,0-25.98,0"/>
</svg>