<?xml version="1.0" encoding="UTF-8"?>
<svg id="Layer_1" data-name="Layer 1" xmlns="http://www.w3.org/2000/svg" viewBox="0 0 480.79 108.47">
  <defs>
    <style>
      .cls-1 {
        fill: #333;
        stroke-width: 0px;
      }
    </style>
  </defs>
  <path class="cls-1" d="m223.12,91.17c10.14,0,20.32.32,30.46.05,14.15-.38,28.23-4.29,42.03-7.11,8.72-1.78,17.29-3.67,26.08-5.09,9.26-1.49,18.67-2.32,27.93-3.95,7.96-1.4,16.17-.85,24.26-.85,4.73,0,9.46-.04,14.19,0,4.27.03,8.19-.87,12.39-1.16,7.11-.48,13.8-2.21,20.59-4.49s14.58-3.5,21.21-6.78c3.6-1.78,7.62-2.37,11.01-4.49,2.6-1.63,5.36-2.93,7.96-4.54,5.18-3.22,10.66-8.05,14.9-12.42,2.17-2.24,3.96-5.9,4.55-9.04.99-5.26-5.08-8.08-8.78-10.11-2.91-1.59-4.96-3.5-8.18-4.59-3.1-1.04-5.76-1.95-8.95-2.5-9.34-1.61-18.09-3.14-27.6-3.14-17.67,0-35.35.13-53.02,0-8.23-.06-16.22,2.15-24.38,2.28-4.01.06-8.72.59-12.63-.11-4.97-.89-9.82-2.94-14.71-4.18-7.84-1.99-15.48-4.94-23.69-4.8-4.36.07-8.32-.64-12.66-1-5.02-.42-10.24-.13-15.29-.07-3.54.04-6.72-1.1-10.25-1.2s-7.44.04-11.15.04c-9.86,0-19.8-.38-29.65-.08-5.18.16-10.25,1.78-15.34,2.68-6.36,1.12-12.44.49-18.87.74-5.07.19-9.94,1.24-15.04,1.2-17.85-.14-36.62,4.2-54.22.06-6.15-1.45-12.03-3.97-18.21-5.27C91.23-.18,84.18-.12,77.21.15c-14.85.57-29.94,2.1-43.65,7.85C19.85,13.75,7.54,24.26,2.59,38.28c-5.54,15.72-1.24,33.06,3.89,48.92,1.24,3.82,2.56,7.7,5.02,10.88,4.69,6.05,12.68,8.48,20.27,9.52,19.8,2.71,39.56-1.65,59.27-3.07,17.88-1.29,34.34,3.58,52.24,3.58,9.31,0,18.52.14,27.69-1.1,14.13-1.91,27.45-6.06,41.05-10.51,3.41-1.12,7.18-1.15,10.68-2.08,2.49-.66,4.77-1.53,7.19-2.1,4.35-1.02,7.82-2.3,12.42-2.29"/>
</svg>