<?xml version="1.0" encoding="UTF-8"?>
<svg id="Layer_1" data-name="Layer 1" xmlns="http://www.w3.org/2000/svg" viewBox="0 0 414.31 121.1">
  <defs>
    <style>
      .cls-1 {
        fill: #333;
        stroke-width: 0px;
      }
    </style>
  </defs>
  <path className="cls-1" d="m7.77,38.64c-3.31,10.86-4.54,21.69-6.46,33.65-1.57,9.8-1.71,17.6-.55,27.33.24,2.02.48,4.05,1.1,5.99,2,6.28,7.76,10.79,13.98,12.95,8.95,3.1,19.71,3.4,28.74.7,8.96-2.68,20.04-2.53,29.38-2.82,5.21-.16,10.12-1.2,15.39-1.17,15.05.08,29.33-.94,44.34-.14,16.59.88,33.22,1.03,49.82.43,12.39-.45,25.17-1.41,36.2-7.09,8.7-4.48,15.24-11.65,23.06-17.34,7.41-5.4,15.91-6.8,24.64-8.97,11.35-2.82,22.89-5.64,34.54-6.98,5.5-.63,10.92-1.86,16.4-2.59,3.49-.46,6.96-.06,10.47-.48,14.84-1.75,28.64-3.51,43.27-6.58,5.4-1.14,10.83-2.28,15.92-4.42,5.46-2.3,10.4-5.7,14.89-9.56,6.36-5.45,12.28-12.97,11.3-21.29-.19-1.64-.68-3.28-1.68-4.59-1.72-2.24-4.62-3.13-7.33-3.9-19.21-5.45-38.43-12.81-58.62-12.66-19.53.15-39.05-.09-58.58,0-7.78.04-15.39-1.12-23.19-1.13-6.13,0-12.44.37-18.55-.09-5.1-.38-10.14-1.6-15.21-2.27-10.5-1.38-20.94-3.32-31.44-4.7-9.87-1.3-19.83-.85-29.8-.85h-59.21C87.91.07,63.63,1.3,41.13,4.82c-6.33.99-12.86,2.41-17.94,6.3-5.17,3.96-8.24,10.02-10.99,15.92-1.82,3.9-3.25,7.75-4.42,11.6Z"/>
</svg>