<?xml version="1.0" encoding="UTF-8"?>
<svg id="Layer_1" data-name="Layer 1" xmlns="http://www.w3.org/2000/svg" viewBox="0 0 314.43 93.24">
  <defs>
    <style>
      .cls-1 {
        fill: #333;
        stroke-width: 0px;
      }
    </style>
  </defs>
  <path class="cls-1" d="m107.68,92.55c11.25-.78,26.79-3.59,36.51-9.53,3.31-2.02,6.17-4.69,9.4-6.82,9.42-6.2,20.24-5.98,30.18-10.42,12.62-5.63,25.8-9.72,39.46-11.88,11.31-1.78,22.86-2.32,34.28-1.42s22.89,4.61,34.3,1.61c4.11-1.08,7.98-2.99,11.56-5.28,3.94-2.52,7.69-5.66,9.71-9.88s1.91-9.72-1.25-13.16c-1.18-1.29-2.7-2.22-4.22-3.08-10.52-6.01-20.99-8.83-32.69-10.93-4.09-.73-7.86-1.2-12.07-1.13-4.46.07-8.64-1.08-13.05-1.16-2.81-.05-5.89.46-8.64-.07-3.29-.64-5.82-1.05-9.23-1.03-8.1.05-16.2,0-24.3,0-28.75,0-57.89.65-86.73-1.28C98.79,5.62,77.09,1.39,55.05.15,35.93-.92,1.22,3.2.18,28.15c-.41,9.92.01,19.95.01,29.88,0,11.32.47,21.64,11.5,27.94,7.22,4.12,15.79,4.99,24.07,5.61,20.1,1.49,40.28,1.98,60.43,1.46,3.82-.1,7.66-.23,11.48-.5Z"/>
</svg>