<?xml version="1.0" encoding="UTF-8"?>
<svg id="Layer_1" data-name="Layer 1" xmlns="http://www.w3.org/2000/svg" viewBox="0 0 520.49 111.4">
  <defs>
    <style>
      .cls-1 {
        fill: #4d4d4d;
        stroke-width: 0px;
      }
    </style>
  </defs>
  <path class="cls-1" d="m.98,45.79c.67-5.6,1.65-11.15,2.87-16.56,1.16-5.15,2.75-10.47,6.44-14.24,4.52-4.62,11.28-6.06,17.62-7.28C46.56,4.1,64.01,1.99,82.67.51c10.79-.86,22.25-.78,32.88,1.45,6.37,1.34,12.75,2.95,19.18,3.85,7.06,1,13.91,3.09,20.97,3.97,8.33,1.03,16.66.72,24.98,1.68,6.24.72,12.6.69,18.88,1.13,17.66,1.22,35.58.25,53.27.25,14.08,0,28.25.56,42.32.08,10.4-.35,20.01-4.72,30.15-6.87,8.73-1.85,17.63-1.08,26.46-1.13,12.35-.06,24.39,2.08,36.54,4.5,15.97,3.18,32.23,4.94,48.17,8,15.11,2.91,31.09.02,46.53,3.27,9.14,1.92,18.2,5.34,25.23,11.49,11.58,10.13,12.28,24.86,12.27,39.14,0,7.18.07,14.38-3.69,20.29-4.26,6.7-9.57,10.02-16.38,11.29-14.49,2.7-29.48,1.42-44.11,1.42-23.49,0-47.45,1.87-70.7-2.54-11.98-2.27-24.51-4.36-36.66-4.26-6.35.05-12.72-.22-19.06-.05-7.72.2-15.43,2.74-22.98,4.59-15.47,3.8-31.15,7.75-46.94,8.84-14.49,1-29.14.2-43.66.2-29.44,0-57.75-2.8-87.08-5.21-19.93-1.64-39.54-.19-59.43.91-14.74.82-36.32,6.13-50.22.59-8.91-3.55-14.76-12.54-16.96-21.87C-.42,72.64-.6,59.06.98,45.79Z"/>
</svg>