<?xml version="1.0" encoding="UTF-8"?>
<svg id="Layer_1" data-name="Layer 1" xmlns="http://www.w3.org/2000/svg" viewBox="0 0 358.85 111.22">
  <defs>
    <style>
      .cls-1 {
        fill: #4d4d4d;
        stroke-width: 0px;
      }
    </style>
  </defs>
  <path class="cls-1" d="m5.79,72.19C.67,67.03-.48,56.49.16,47.36c.18-2.52.45-5.04.91-7.48,1.84-9.82,6.86-18.22,13.11-22.39,3.03-2.02,5.98-2.43,8.94-4.63,3.39-2.53,6.52-5.32,10.23-6.8,7.91-3.15,16.12-4.6,24.19-5.55,7.28-.86,15.01-.78,22.18,1.45,4.3,1.34,8.6,2.95,12.94,3.85,4.76,1,9.38,3.09,14.15,3.97,5.62,1.03,11.24.72,16.86,1.68,4.21.72,8.5.69,12.73,1.13,11.92,1.22,24,.25,35.94.25,9.5,0,19.06.56,28.55.08,7.02-.35,13.5-4.72,20.34-6.87,5.89-1.85,11.89-1.08,17.85-1.13,8.33-.06,16.45,2.08,24.65,4.5,25.69,7.57,51.45,8.24,76.08,20.27,10.21,4.99,18.91,9.38,19.04,21.61.12,11.15-7.66,21.93-16.64,27.84-11.91,7.85-26.59,9.96-40.73,11.87-50.05,6.77-103.52,20.08-153.77,20.08-6.07,0-12.21.54-18.24-.56-6.73-1.22-13.33-3.87-20.02-5.94-5.34-1.65-10.87-2.71-16.27-3.68-6.01-1.08-11.72-4.58-17.81-4.51-5.5.06-11.44-1.14-16.88.25-5.79,1.48-11.69.88-17.53.88h-12.26c-4.83,0-9.15.79-13.57-3.4-2.2-2.09-4.01-4.24-5.66-7.65-1.27-2.62-2.75-5.35-3.92-8.06-2.71-6.31-3.13-15.23-3.11-22.77,0-2.68-.44-7.34.09-9.85.54-2.55,1.89-3.63,2.64-5.81.53-1.53.38-3.17.66-4.84.74-4.39,3.18-8.64,5.4-10.75,2.86-2.72,5.71-5.7,8.61-8.5"/>
</svg>