<?xml version="1.0" encoding="UTF-8"?>
<svg id="Layer_1" data-name="Layer 1" xmlns="http://www.w3.org/2000/svg" viewBox="0 0 267.41 111.49">
  <defs>
    <style>
      .cls-1 {
        fill: #333;
        stroke-width: 0px;
      }
    </style>
  </defs>
  <path class="cls-1" d="m122.37,95.84c8.64-2.68,17.35-4.99,26.31-6.14,11.21-1.44,22.57-1.02,33.83-1.92,24.75-1.99,48.57-10.35,71.2-20.56,3.48-1.57,7.04-3.26,9.62-6.07,4.95-5.39,5.12-13.98,1.98-20.59s-8.99-11.53-15.16-15.49c-5.12-3.28-10.72-6.09-16.76-6.78-7.83-.89-15.59,1.84-23.45,2.38-17.58,1.2-35.99-6.71-53.2-9.56-5.92-.98-12.28-.94-18.28-1.51-7.68-.74-15-3.1-22.59-4.4C93.87,1.43,72.82,2.96,50.6,1.1,36.2-.11,21.35-1.27,7.59,3.16c-2.38.77-4.87,1.82-6.25,3.91C-.03,9.14-.03,11.81.01,14.3c.26,13.49.52,26.98.78,40.47.22,11.26.52,22.91,5.28,33.12,13.55,29.1,52.98,25.48,78.9,19.39,12.67-2.97,24.96-7.58,37.4-11.44Z"/>
</svg>