<?xml version="1.0" encoding="UTF-8"?>
<svg xmlns="http://www.w3.org/2000/svg" viewBox="0 0 55.71 92.76">
  <defs>
    <style>
      .cls-1 {
        fill: #c91f1f;
        mix-blend-mode: multiply;
      }

      .cls-1, .cls-2, .cls-3, .cls-4, .cls-5, .cls-6 {
        stroke-width: 0px;
      }

      .cls-2 {
        fill: none;
        stroke: #202020;
      }

      .cls-7 {
        opacity: .8;
      }

      .cls-8 {
        opacity: .7;
      }

      .cls-9 {
        isolation: isolate;
      }

      .cls-4 {
        fill: #202020;
      }

      .cls-5 {
        fill: #e50516;
      }

      .cls-6 {
        fill: #fff;
      }
    </style>
  </defs>
  <g class="cls-9">
    <g id="Layer_1" data-name="Layer 1">
      <g class="cls-7">
        <path class="cls-6" d="m29.92,84.14c.62-5.05,1.29-10.01,1.49-15.17.22-5.73.19-12.51-.73-18.13-.45-2.76-.76-5.38-.78-8.23,0-1.44.9-7.81.17-8.74-.03-.04-.06-.09-.09-.18l-.02-.6c-.07-.13-.15-.1-.2-.18-.21-.02-.37-.89-.57-.71-.06.07-.16,1.24-.29,1.76-.04.12-.09-.17-.16-.3-.05.69-.13.73-.18.43-.02.16-.03.32-.03.32,0-.03-.07-.13-.09-.17.13.49-.11,1.26-.16,1.77-.07.71-.11,1.42-.12,2.14-.06,5.05.71,10.02,1.28,15,.56,4.88.46,9.54.46,14.43,0,5.07.06,10.14-.46,15.19-.1.92-1.85,9.91-.71,10,.3-.75.04-1.53.19-2.28.13-.62.44-1.12.55-1.76.27-1.51.25-3.07.43-4.58Z"/>
      </g>
      <g>
        <path class="cls-5" d="m30.05,26.84c1.59-4.23,4.86-7.92,9.16-10.31,2.63-1.46,5.77-2.46,8.96-2.08,3.19.38,6.33,2.41,6.98,5.15.47,2-.44,4.06-1.98,5.52s-3.64,2.4-5.79,3.1c-2.71.89-5.56,1.45-8.43,1.9-3.1.49-6.42.84-9.42-.22"/>
        <g class="cls-8">
          <g>
            <g>
              <path class="cls-4" d="m32.41,23.55c.28-.37.52-.78.77-1.15.51-.81,1.27-1.2,1.85-1.92.74-.91,1.78-1.45,2.71-2.2,1.71-1.39,3.73-2.66,5.96-3.08,2.07-.4,4.13-.37,5.94.25,1.79.61,3.48,1.83,4.14,3.44.38.91.4,1.9.06,2.86-.34.96-1,1.85-1.79,2.57-.58.55-1.65,1.21-2.82,1.73-1.16.53-2.38.96-3.07,1.34,1.96-.71,4-1.36,5.6-2.4-1.65,1.3-3.83,2.1-6.02,2.77-2.2.67-4.46,1.17-6.67,1.68,2.07-.44,4.14-.89,6.15-1.44,2.01-.56,4-1.17,5.75-2.11,1.74-.92,3.27-2.28,3.9-4.15.31-.92.35-1.94.05-2.91-.28-.98-.87-1.86-1.56-2.63.88.82,1.66,1.87,1.94,3.13.31,1.25.05,2.59-.56,3.7-1.24,2.28-3.68,3.56-6.08,4.42-2.44.86-4.98,1.43-7.43,1.96-2.47.51-4.82,1.07-7.08,1.37-.69.09-1.47.17-2.07.22,2.34-.09,4.68-.58,7.12-1.07,2.44-.5,4.96-.98,7.44-1.67,2.47-.69,4.99-1.54,6.93-3.3.94-.89,1.7-2.01,2.01-3.3.34-1.28.11-2.71-.53-3.85-1.19-2.1-3.32-3.43-5.59-4.07-2.32-.63-4.77-.44-7.01.25-1.23.34-2.42.83-3.55,1.41-2.3,1.2-4.41,2.83-6.1,4.82-.76.87-1.71,2.18-2.32,3.48-.63,1.29-.89,2.53-.69,3.05.29-.65.51-1.42.88-2-.06.26-.12.56-.2.86.11-.27.28-.54.37-.8-.07.22-.13.44-.1.55.17-.3.29-.79.39-1.05.05-.15.27-.88.42-1.04-.18.54-.41,1.21-.45,1.68.09-.16.16-.33.27-.48-.06.22-.22.63-.2.77.19-.41.35-.79.6-1.2.21-.33.4-.61.58-.94-.19.4-.47.93-.51,1.25.12-.16.22-.35.32-.53,0,.03,0,.05.01.06.05-.08.13-.17.18-.25.02,0,.05,0,.05.03l-.03-.03"/>
              <path class="cls-4" d="m30.84,23.34c.25-.42.62-1,.92-1.33"/>
              <path class="cls-2" d="m55.1,18.36s.05.09.12.28c.08.18.17.46.25.82.16.72.21,1.83-.25,3.03-.44,1.2-1.37,2.42-2.66,3.38-1.29.97-2.88,1.69-4.56,2.28-3.37,1.17-7.1,1.89-10.4,2.55-1.66.32-3.25.54-4.7.62-1.45.08-2.76-.01-3.81-.12"/>
            </g>
            <path class="cls-2" d="m49.8,26.8s-.52.23-1.43.57c-.91.33-2.23.76-3.79,1.18-1.56.43-3.36.85-5.23,1.29-1.87.44-3.78.91-5.68,1.17"/>
          </g>
        </g>
      </g>
      <g>
        <path class="cls-5" d="m29.93,25.68c-2.1-4.42-2.7-9.66-1.67-14.67.63-3.06,1.94-6.15,4.3-8.22,2.36-2.07,5.92-2.84,8.37-1.23,1.79,1.18,2.72,3.43,2.8,5.69.08,2.26-.59,4.53-1.48,6.66-1.11,2.68-2.55,5.22-4.09,7.69-1.66,2.67-3.56,5.4-6.31,6.8"/>
        <g class="cls-8">
          <g>
            <g>
              <path class="cls-4" d="m29.1,21.6c-.11-.47-.23-.94-.36-1.38-.27-.95-.07-1.8-.25-2.73-.22-1.19.04-2.36.06-3.59.03-2.26.32-4.69,1.4-6.75.99-1.92,2.33-3.56,4-4.56,1.65-.99,3.75-1.35,5.38-.66,1.89.74,2.95,3.06,3.06,5.29.06.82-.09,2.11-.43,3.37-.32,1.26-.78,2.49-.94,3.29.73-2,1.52-4.03,1.71-5.99-.02,2.16-.78,4.4-1.7,6.56-.92,2.17-2.02,4.26-3.1,6.31,1.04-1.91,2.06-3.81,2.95-5.75.89-1.94,1.69-3.9,2.06-5.91.38-1.99.26-4.08-.72-5.86-.48-.88-1.19-1.64-2.1-2.15-.91-.51-1.98-.75-3.04-.77,1.23-.08,2.56.16,3.67.86,1.11.69,1.91,1.81,2.35,3.03.93,2.48.45,5.24-.43,7.71-.9,2.49-2.13,4.86-3.35,7.12-1.25,2.26-2.37,4.46-3.66,6.42-.39.59-.85,1.25-1.22,1.75,1.53-1.86,2.69-4.02,3.93-6.24,1.24-2.22,2.53-4.51,3.62-6.92,1.08-2.39,2-4.96,1.84-7.63-.09-1.32-.46-2.64-1.19-3.77-.72-1.13-1.88-2.01-3.16-2.38-2.38-.69-4.95-.04-6.97,1.36-2.02,1.44-3.42,3.54-4.29,5.77-.51,1.2-.88,2.46-1.14,3.72-.53,2.59-.63,5.3-.23,7.92.17,1.16.52,2.77,1.06,4.11.53,1.35,1.25,2.42,1.77,2.65-.28-.67-.68-1.38-.86-2.06.15.23.34.48.5.75-.12-.27-.21-.59-.34-.83.11.2.23.41.34.46-.11-.34-.37-.77-.51-1.02-.07-.15-.48-.82-.49-1.04.28.51.62,1.14.94,1.5-.06-.18-.13-.36-.18-.54.14.2.31.61.44.69-.17-.44-.35-.82-.49-1.29-.12-.38-.18-.73-.32-1.09.18.42.38,1,.6,1.25-.03-.21-.12-.41-.19-.61.02.02.04.03.05.03-.03-.09-.04-.22-.07-.31.02,0,.03-.03.06-.02h-.04"/>
              <path class="cls-4" d="m27.89,22.64c-.15-.47-.34-1.15-.38-1.6"/>
              <path class="cls-2" d="m39.91.63s.41.12,1.05.54c.64.4,1.45,1.17,2.05,2.32.59,1.15.96,2.66.89,4.31-.05,1.65-.49,3.39-1.12,5.1-1.27,3.43-3.2,6.82-4.89,9.82-.86,1.5-1.73,2.89-2.66,4.06-.92,1.17-1.9,2.11-2.74,2.83"/>
            </g>
            <path class="cls-2" d="m42.9,10.61s-.15.56-.47,1.5c-.33.94-.86,2.25-1.55,3.75-.69,1.5-1.55,3.19-2.46,4.93-.91,1.74-1.81,3.55-2.88,5.19"/>
          </g>
        </g>
      </g>
      <g>
        <path class="cls-5" d="m25.5,29.35c-5.15-2.24-9.56-6.11-12.34-10.84-1.7-2.89-2.81-6.24-2.23-9.43.58-3.19,3.19-6.1,6.58-6.36,2.48-.19,4.97,1.04,6.71,2.82,1.74,1.78,2.81,4.06,3.6,6.35.99,2.89,1.58,5.88,2.03,8.87.49,3.23.8,6.67-.61,9.57"/>
        <g class="cls-8">
          <g>
            <g>
              <path class="cls-4" d="m21.87,26.71c-.42-.3-.87-.58-1.29-.84-.9-.57-1.4-1.35-2.21-1.97-1.04-.78-1.72-1.88-2.62-2.86-1.64-1.8-3.21-3.93-3.88-6.34-.63-2.24-.75-4.54-.02-6.49.73-1.94,2.31-3.58,4.22-4.11,1.1-.3,2.3-.27,3.47.1,1.16.37,2.28,1.02,3.21,1.82.69.56,1.57,1.65,2.26,2.86.7,1.2,1.24,2.5,1.67,3.25-.85-2.11-1.79-4.25-3.18-5.86,1.66,1.64,2.75,3.93,3.58,6.31.84,2.39,1.43,4.87,1.98,7.3-.48-2.29-1.01-4.55-1.7-6.74-.69-2.19-1.52-4.31-2.78-6.1-1.25-1.78-3.01-3.23-5.1-3.87-1.04-.32-2.16-.41-3.26-.22-1.1.21-2.16.67-3.09,1.35,1.01-.87,2.3-1.49,3.68-1.68,1.38-.19,2.81.09,4.09.68,2.6,1.17,4.45,3.55,5.59,6.14,1.15,2.61,1.86,5.4,2.48,8.09.57,2.72,1.2,5.31,1.49,7.82.09.76.14,1.62.16,2.29.05-2.6-.54-5.18-1.08-7.87-.55-2.69-1.13-5.46-2.03-8.16-.89-2.68-2.17-5.36-4.39-7.2-1.1-.91-2.38-1.61-3.77-1.94-1.38-.33-2.9-.26-4.21.27-2.43.94-4.31,3.13-5.03,5.71-.71,2.6-.27,5.33.68,7.72.49,1.32,1.12,2.57,1.86,3.75,1.5,2.42,3.43,4.59,5.65,6.36.98.79,2.42,1.8,3.81,2.48,1.39.7,2.71,1.06,3.28.9-.7-.34-1.53-.63-2.16-1.05.28.08.61.15.93.26-.28-.14-.59-.32-.87-.43.23.09.48.16.6.13-.33-.18-.85-.36-1.14-.46-.17-.06-.95-.34-1.14-.48.59.2,1.31.47,1.82.55-.18-.11-.36-.19-.53-.31.25.06.69.27.84.25-.45-.24-.87-.41-1.32-.69-.37-.22-.68-.44-1.05-.64.44.22,1.03.52,1.38.59-.18-.14-.39-.25-.59-.36.03,0,.05,0,.07,0-.09-.05-.19-.14-.28-.19,0-.02,0-.05.03-.06l-.03.03"/>
              <path class="cls-4" d="m21.72,28.32c-.46-.26-1.09-.67-1.46-.98"/>
              <path class="cls-2" d="m15.74,2.7s.43-.16,1.23-.27c.79-.11,1.98-.09,3.3.35,1.31.43,2.75,1.28,3.99,2.55,1.24,1.27,2.25,2.93,3.01,4.75,1.53,3.64,2.36,7.77,3.07,11.41.35,1.83.6,3.59.62,5.2.04,1.61-.19,3.07-.48,4.23"/>
            </g>
            <path class="cls-2" d="m25.67,8.2s.32.54.76,1.51c.44.97.98,2.39,1.5,4.1.52,1.7,1.02,3.68,1.5,5.74.47,2.06,1,4.17,1.24,6.27"/>
          </g>
        </g>
      </g>
      <g>
        <path class="cls-5" d="m23.64,32.28c-4.81,1.76-10.09,1.93-14.76.47-2.86-.89-5.58-2.48-7.07-5.04-1.49-2.56-1.43-6.23.72-8.58,1.57-1.72,3.99-2.47,6.22-2.37,2.23.11,4.3.98,6.19,2.05,2.37,1.35,4.53,3.02,6.6,4.78,2.24,1.9,4.47,4.06,5.22,6.96"/>
        <g class="cls-8">
          <g>
            <g>
              <path class="cls-4" d="m19.6,32.76c-.46.06-.93.16-1.37.26-.94.2-1.76-.04-2.68.06-1.17.14-2.29-.2-3.49-.29-2.19-.18-4.54-.65-6.42-1.91-1.74-1.16-3.13-2.7-3.72-4.48-.59-1.77-.43-3.81.52-5.32,1.07-1.78,3.3-2.81,5.47-2.94.78-.07,2.01.09,3.18.47,1.18.36,2.32.9,3.07,1.13-1.84-.9-3.73-1.75-5.62-1.94,2.08.02,4.19.87,6.17,1.98,2,1.1,3.88,2.44,5.71,3.76-1.69-1.27-3.4-2.49-5.18-3.56-1.78-1.07-3.6-1.99-5.53-2.38-1.91-.41-3.95-.21-5.71.69-1.77.88-3.09,2.64-3.58,4.67.19-1.19.68-2.38,1.47-3.36.79-.99,1.89-1.72,3.08-2.15,1.2-.43,2.5-.58,3.77-.47,1.28.12,2.52.49,3.69,1.01,2.35,1.05,4.5,2.53,6.53,3.99,2.01,1.51,3.99,2.9,5.68,4.44.51.47,1.07,1.03,1.48,1.48-1.52-1.82-3.46-3.22-5.44-4.74-1.98-1.5-4.03-3.05-6.26-4.34-2.2-1.28-4.71-2.29-7.33-2.09-1.29.09-2.57.47-3.68,1.15-1.11.67-2.04,1.67-2.61,2.81-1.05,2.11-1.12,4.69-.16,6.94.99,2.27,2.92,3.96,5.01,5.03,1.13.62,2.33,1.09,3.55,1.44,2.5.73,5.15.99,7.72.77,1.14-.09,2.73-.32,4.07-.75,1.35-.42,2.44-1.03,2.71-1.52-.68.21-1.4.54-2.07.67.23-.13.49-.3.77-.43-.28.08-.59.16-.84.26.21-.09.41-.2.47-.3-.33.09-.78.3-1.04.42-.15.07-.83.39-1.05.41.51-.25,1.15-.53,1.53-.82-.18.04-.36.1-.54.13.2-.12.62-.26.7-.37-.44.12-.82.28-1.29.37-.38.08-.72.13-1.08.23.43-.14,1-.31,1.27-.5-.2.01-.41.08-.61.13.02-.02.03-.03.04-.05-.09.02-.21.03-.31.05,0-.02-.03-.04-.02-.06v.04"/>
              <path class="cls-4" d="m20.53,34.04c-.47.12-1.14.24-1.58.26"/>
              <path class="cls-2" d="m1.25,20.28s.19-.37.64-.94c.46-.57,1.24-1.3,2.37-1.86,1.12-.56,2.59-.94,4.21-.89,1.61.05,3.31.54,4.93,1.29,3.24,1.53,6.27,3.86,8.93,5.92,1.33,1.04,2.56,2.09,3.53,3.2.99,1.09,1.7,2.24,2.21,3.21"/>
            </g>
            <path class="cls-2" d="m11.17,17.64s.54.16,1.43.55c.88.38,2.1,1.01,3.48,1.85,1.37.84,2.9,1.88,4.46,3,1.56,1.12,3.18,2.23,4.6,3.53"/>
          </g>
        </g>
      </g>
      <path class="cls-3" d="m21.27,26.99c.09.42.2.84.24,1.27.1,1.04-.34,2.04,0,3.07.56,1.72,4.46,4.28,6.25,4.28,2.01,0,4.47-.02,5.99-1.56.71-.72,1.1-1.7,1.61-2.59.43-.76.96-1.47,1.32-2.27.42-.93.51-2.22.3-3.22-.65-3.08-3.11-5.21-6.02-6.08-3.67-1.1-9.04.97-9.82,5.21-.12.67,0,1.28.13,1.88Z"/>
      <path class="cls-1" d="m14.7,18.64c.15.17.3.34.47.5.15.14.28.18.44.27.19.11.3.3.42.47.09.12.19.26.31.34.07.05.14.1.2.15.08.06.18.13.25.2.06.06.07.09.14.14.05.03.1.05.15.07s.09.08.14.09c.06.02.12,0,.18.01.1.03.2.12.3.16.13.06.23.16.36.22.07.03.14.05.2.08.15.08.3.17.44.25.26.15.53.3.78.48.21.15.46.26.68.4.11.07.22.13.33.19.13.07.25.15.37.23.22.13.43.32.63.47.22.17.44.34.68.5.2.13.42.28.56.48.04.05.06.11.1.17.05.07.13.11.17.17.09.12.15.26.24.38.09.14.15.29.24.42.07.1.13.17.17.29.1.27.21.53.31.8.09.24.2.46.27.7.05.16.11.3.18.44.03.07.06.13.1.2s.11.14.14.21c.03.08.04.15.07.22.04.1.02.19.03.28.02.12.12.19.18.29.05.09.11.18.17.27.08.13.13.27.2.41.05.1.08.22.13.33.04.07.09.14.09.23,0,.11,0,.2.03.29,0,.03.04.07.04.1.01.06,0,.12.01.18.03.07.07.14.11.21.07.15.14.3.21.45.13.3.26.6.38.91.1.24.19.47.29.7.11.24.22.48.32.73.12.3.22.61.31.92-.02-.96-.09-1.92-.26-2.85-.21-1.15-.59-2.25-1.12-3.25-.23-.44-.43-.88-.59-1.36-.16-.46-.28-.92-.44-1.38-.15-.45-.32-.88-.55-1.28-.17-.29-.4-.71-.73-.82-.12-.04-.21-.08-.3-.18-.16-.17-.4-.3-.6-.45-.56-.45-1.11-.9-1.67-1.35-.25-.19-.51-.36-.74-.57s-.46-.45-.71-.66c-.1-.08-.21-.11-.31-.18s-.2-.16-.29-.23c-.22-.17-.49-.31-.69-.5-.24-.23-.51-.42-.72-.68-.1-.12-.21-.21-.34-.31-.16-.12-.27-.28-.43-.39-.22-.15-.44-.33-.68-.46-.16-.09-.32-.25-.5-.27-.1,0-.21.03-.31,0-.08-.02-.16-.12-.24-.17-.16-.09-.32-.19-.48-.29s-.29-.21-.42-.34-.26-.3-.43-.36c-.05.13-.03.38-.01.52.02.15.06.34.11.48.1.31.25.62.48.85.15.16.3.33.44.49Z"/>
      <path class="cls-1" d="m28.13,13.18c-.07-.1-.09-.21-.19-.3-.04-.04-.07-.07-.11-.11-.02-.03-.09-.14-.1-.15-.13-.1-.21.16-.27.27-.02.03-.08.12-.09.16-.02.07,0,.14,0,.21-.03.16-.1.31-.13.46-.06.3,0,.68,0,.99s.16.64.28.93c.06.14.1.27.15.4.06.16.15.3.22.46.06.14.15.27.22.4.07.14.1.32.14.47.04.13.1.26.11.4.02.17.04.33.11.5.07.18.11.36.14.55.02.18.12.38.19.56.12.32.14.65.25.99s.19.75.26,1.1c.01.06.06.16.08.23.02.09.02.18.04.26,0,.03.04.03.05.07.01.05,0,.1,0,.15.01.06.05.14.07.21.04.14.14.28.17.45.02.08.05.17.06.25.02.09-.02.19,0,.28.02.11.06.16.06.28,0,.08-.02.2,0,.28s.06.13.07.21c0,.08-.03.18,0,.25.02.07.06.07.08.15.04.18,0,.42,0,.6.13-.71.24-1.41.31-2.11.08-.85.08-1.68,0-2.43-.03-.33-.05-.66-.05-1.02,0-.14.03-.27.03-.41,0-.22-.03-.45.02-.67.02-.08.04-.14.05-.22.02-.26,0-.54,0-.8,0-.18.01-.33-.06-.5-.06-.14-.14-.25-.23-.37-.2-.27-.44-.53-.62-.81-.06-.1-.12-.22-.17-.32-.03-.06-.06-.14-.08-.19-.03-.08-.09-.15-.12-.22s-.03-.15-.06-.23c-.02-.05-.06-.11-.07-.16-.04-.15-.06-.31-.14-.44-.14-.24-.26-.48-.4-.71-.06-.09-.13-.17-.2-.26-.02-.02-.03-.04-.04-.06Z"/>
      <path class="cls-1" d="m39.53,15.72c-.07.15-.14.31-.18.45s-.13.3-.17.45c-.1.31-.24.64-.38.95-.08.17-.18.34-.27.51-.06.1-.14.2-.17.32,0,.04,0,.09,0,.13-.04.15-.18.29-.26.42-.11.17-.23.33-.35.51-.33.5-.65,1-.95,1.52-.15.25-.31.49-.46.74-.06.1-.09.22-.14.32-.06.12-.13.24-.18.37-.09.2-.19.4-.28.6-.06.15-.15.31-.15.47,0,.06.02.11.04.17.01.05,0,.09,0,.14,0,.2-.03.4-.07.59-.08.38-.26.85-.63,1.48-.43.73-1.01,1.57-1.61,2.41-.15.21-.29.42-.44.62-.15.22-.29.43-.45.64-.19.26-.39.53-.59.8.69-.81,1.37-1.62,2.01-2.42.78-.99,1.49-1.95,2.08-2.85.26-.39.53-.78.84-1.2.29-.4.6-.81.89-1.2.29-.39.56-.78.79-1.13.24-.38.42-.72.53-.99.12-.3.22-.6.3-.91.06-.22.1-.47.19-.68s.22-.38.29-.6c.09-.25.17-.5.25-.74.08-.25.19-.45.21-.7s.22-.48.36-.7c.08-.12.16-.26.23-.38.06-.1.08-.21.12-.31.04-.11.09-.2.12-.31.03-.09.05-.16.06-.25.02-.08.05-.11.06-.18s-.02-.15,0-.22c.01-.06.05-.09.07-.15.02-.08-.02-.17,0-.25,0-.07.05-.1.06-.16.03-.15-.02-.31.02-.46s.05-.27.05-.43c0-.1,0-.21,0-.31,0-.09.05-.15.07-.24.03-.15,0-.34,0-.49,0-.17.04-.28.06-.43.02-.16,0-.34,0-.5s0-.33,0-.49.08-.32.06-.47c-.11.09-.19.39-.23.53-.08.26-.14.51-.2.77-.05.21-.12.44-.2.65s-.16.43-.27.62c-.19.32-.28.72-.46,1.05-.08.15-.19.3-.26.46-.06.13-.04.27-.08.41-.02.09-.07.17-.11.25-.1.25-.08.52-.21.77-.01.02-.02.05-.04.07Z"/>
      <path class="cls-1" d="m12.4,32.88c.13.02.25.02.39.02.49,0,.98,0,1.48,0,.21,0,.44-.03.65.02.39.09.78.09,1.18.15.45.07.9.13,1.36.2.9.14,1.79.26,2.42.2.59-.06.98-.25,1.32-.44.35-.19.65-.4,1.08-.55.42-.14.95-.22,1.69-.17.86.07,1.86.27,2.88.48.25.05.5.11.75.15.26.05.51.1.77.15.32.07.64.15.97.23-1-.36-2-.7-2.98-.99-1.21-.36-2.37-.63-3.44-.81-.47-.08-.94-.17-1.44-.29-.11-.03-.23-.08-.34-.08-.02,0-.03,0-.05,0-.06,0-.1-.05-.15-.07-.13-.05-.26-.11-.38-.17-.12-.05-.23-.07-.35-.09-.13-.02-.25-.08-.38-.1-.2-.04-.4-.03-.6-.06-.18-.03-.38,0-.56,0-.51,0-1,.15-1.5.23-.08.01-.15.05-.24.07-.07.01-.13.03-.2.06-.11.04-.22.08-.34.12-.13.05-.28.09-.42.13-.04.01-.08,0-.12.02-.03,0-.06.03-.1.04-.08.02-.17.02-.26.03-.58.13-1.18.04-1.78.04-.36,0-.76.05-1.12-.01-.45-.08-.9-.21-1.35-.3-.41-.08-.83-.17-1.24-.29-.22-.07-.42-.17-.63-.25-.2-.07-.41-.12-.6-.18-.3-.1-.6-.21-.89-.32s-.59-.25-.9-.34c-.24-.07-.55-.15-.79-.08.02.11.25.23.33.3.12.09.24.19.37.27.34.23.64.52.99.75.94.61,1.96,1.21,3,1.56.29.1.59.14.89.2.12.02.24.1.37.13.08.02.16.03.24.04Z"/>
      <path class="cls-1" d="m36.51,29.38c.33,0,.6-.08.92-.17.27-.08.56-.11.83-.18.31-.07.64-.06.94-.15.44-.12.9-.19,1.35-.28.39-.08.76-.2,1.15-.29s.72-.28,1.06-.43.74-.24,1.1-.37c.32-.11.68-.13,1-.2.2-.05.5-.16.71-.08-.01.11-.19.16-.27.2-.17.09-.32.18-.48.28-.29.18-.6.3-.88.49-.51.36-1.09.57-1.64.85-.16.08-.33.11-.49.17-.2.07-.42.12-.62.19-.38.13-.78.21-1.17.31-.42.11-.86.27-1.3.28-.19,0-.36.06-.56.06-.22,0-.41.05-.62.06-.54.02-1.02.31-1.48.55"/>
    </g>
  </g>
</svg>