<?xml version="1.0" encoding="UTF-8"?>
<svg xmlns="http://www.w3.org/2000/svg" viewBox="0 0 53.56 94.53">
  <defs>
    <style>
      .cls-1 {
        fill: #c91f1f;
        mix-blend-mode: multiply;
      }

      .cls-1, .cls-2, .cls-3, .cls-4, .cls-5, .cls-6 {
        stroke-width: 0px;
      }

      .cls-2 {
        fill: none;
        stroke: #202020;
      }

      .cls-7 {
        opacity: .8;
      }

      .cls-8 {
        opacity: .7;
      }

      .cls-9 {
        isolation: isolate;
      }

      .cls-4 {
        fill: #202020;
      }

      .cls-5 {
        fill: #e50516;
      }

      .cls-6 {
        fill: #fff;
      }
    </style>
  </defs>
  <g class="cls-9">
    <g id="Layer_1" data-name="Layer 1">
      <g class="cls-7">
        <path class="cls-6" d="m28.59,92.06c-.68,1.97.59-.31-.08,1.67,2.92-7.14,2.8-10.47,3.48-18.15-.88,5.29-1.76,10.57-2.65,15.86.68-3.39,1.37-6.79,2.05-10.18-.48,2.62-.89,5.27-1.56,7.85-.16.67-.38,1.28-.58,1.9l-.35,1.22c-.03.12-.07.25-.09.36.27-.47,1.21-3.27,1.91-6.23,2.12-8.68,1.87-17.76.53-26.56-.61-4.01-1.33-8-1.81-12.03-.56-4.72-.13-9.32-.07-14.02-.04-.04-.08-.09-.1-.18l-.02-.6c-.08-.13-.18-.1-.24-.18-.26-.02-.44-.89-.69-.71-.07.07-.19,1.24-.36,1.76-.05.12-.11-.17-.19-.3-.06.69-.16.73-.22.44-.02.16-.04.32-.04.33,0-.03-.09-.13-.11-.17.16.49-.13,1.26-.19,1.77-.08.71-.13,1.43-.14,2.14-.04,2.55.5,5.01.93,7.51s.88,5,1.28,7.51c.17.93.3,1.84.44,2.75.05.34.11.67.16.98,1.06,6.8,1.38,11.83,1.22,18.5-.08,3.37-.47,6.82-1.1,10.1-.63,3.28-1.5,6.4-2.44,9.15"/>
      </g>
      <g>
        <path class="cls-5" d="m28.95,26.53c1.59-4.51,4.78-8.47,8.92-11.08,2.53-1.59,5.55-2.71,8.58-2.36,3.03.35,6,2.45,6.57,5.33.42,2.11-.49,4.31-1.99,5.88s-3.51,2.6-5.58,3.39c-2.6.99-5.33,1.63-8.07,2.16-2.97.57-6.14,1-8.98-.07"/>
        <g class="cls-8">
          <g>
            <g>
              <path class="cls-4" d="m31.18,23.18c.25-.39.49-.79.69-1.19.46-.83,1.19-1.27,1.71-2.03.67-.96,1.66-1.57,2.52-2.39,1.59-1.5,3.49-2.93,5.65-3.51,2.01-.55,4.06-.64,5.85-.05,1.78.57,3.37,1.85,4,3.47.78,1.84,0,4.14-1.41,5.74-.5.6-1.47,1.37-2.57,1.97-1.08.62-2.25,1.12-2.91,1.54,1.89-.81,3.82-1.62,5.28-2.82-1.48,1.45-3.54,2.43-5.67,3.21-2.13.79-4.35,1.39-6.51,1.98,2.04-.52,4.06-1.06,6.02-1.71,1.96-.66,3.87-1.4,5.49-2.51,1.62-1.09,2.93-2.62,3.44-4.52.25-.94.26-1.95,0-2.92-.27-.97-.8-1.88-1.47-2.66.86.83,1.56,1.92,1.84,3.15.29,1.23.11,2.55-.4,3.7-1.01,2.37-3.23,3.95-5.54,4.97-2.35,1.03-4.84,1.73-7.24,2.36-2.42.6-4.73,1.26-6.97,1.63-.68.11-1.45.21-2.05.27,2.34-.12,4.63-.72,7.03-1.3,2.4-.59,4.87-1.18,7.29-2.01,2.4-.83,4.83-1.91,6.52-3.89.83-.98,1.45-2.16,1.69-3.44.26-1.28.04-2.66-.55-3.8-1.1-2.11-3.19-3.56-5.5-4.14-2.35-.57-4.81-.21-6.98.65-1.2.43-2.34,1.01-3.4,1.68-2.19,1.37-4.14,3.15-5.67,5.21-.69.91-1.55,2.25-2.1,3.56-.56,1.3-.79,2.52-.58,3.04.27-.65.47-1.42.82-2.01-.05.26-.09.56-.17.86.11-.27.26-.55.34-.8-.06.22-.11.44-.07.55.15-.31.27-.79.35-1.05.05-.15.23-.89.37-1.05-.15.55-.35,1.21-.37,1.68.09-.16.15-.33.25-.49-.04.23-.2.63-.17.77.19-.42.32-.8.55-1.22.18-.34.38-.62.52-.97-.17.41-.42.95-.44,1.27.12-.16.2-.36.29-.55,0,.03,0,.05.01.06.04-.08.12-.18.17-.26.02,0,.05,0,.06.03l-.04-.03"/>
              <path class="cls-4" d="m29.6,23.04c.22-.42.56-1.02.83-1.36"/>
              <path class="cls-2" d="m52.95,16.99s.19.37.35,1.09c.17.71.23,1.79-.13,3-.35,1.21-1.11,2.52-2.27,3.61-1.16,1.1-2.67,1.98-4.3,2.67-3.26,1.4-6.94,2.26-10.19,3.04-1.63.38-3.21.67-4.65.77-1.45.11-2.76.02-3.83-.12"/>
            </g>
            <path class="cls-2" d="m48.27,25.89s-.49.28-1.37.68c-.87.4-2.15.9-3.67,1.4-1.52.51-3.28,1.01-5.12,1.52-1.84.51-3.71,1.06-5.59,1.37"/>
          </g>
        </g>
      </g>
      <g>
        <path class="cls-5" d="m28.71,25.47c-2.28-4.55-3.12-9.86-2.36-14.85.47-3.05,1.59-6.1,3.8-8.06,2.21-1.97,5.66-2.57,8.13-.82,1.82,1.28,2.84,3.59,3.02,5.86.19,2.27-.36,4.53-1.12,6.63-.95,2.64-2.24,5.13-3.62,7.54-1.49,2.61-3.22,5.26-5.84,6.53"/>
        <g class="cls-8">
          <g>
            <g>
              <path class="cls-4" d="m27.77,21.48c-.12-.46-.27-.91-.42-1.34-.31-.92-.17-1.76-.39-2.67-.29-1.15-.1-2.32-.18-3.53-.13-2.22-.03-4.63.87-6.73.83-1.95,2.03-3.66,3.63-4.67,1.58-1,3.64-1.29,5.24-.55,1.85.8,3.05,3.01,3.38,5.2.14.79.12,2.06-.1,3.31-.2,1.25-.56,2.48-.67,3.26.59-1.99,1.18-4.03,1.17-5.96.19,2.11-.35,4.35-1.12,6.51-.77,2.17-1.75,4.28-2.73,6.34.94-1.91,1.85-3.83,2.61-5.78.76-1.95,1.4-3.92,1.57-5.91.18-1.98-.16-4.01-1.2-5.71-.51-.85-1.23-1.57-2.11-2.09-.89-.5-1.92-.8-2.97-.84,1.22-.06,2.51.26,3.59.94,1.08.69,1.9,1.75,2.42,2.91,1.08,2.36.95,5.1.27,7.58-.69,2.5-1.78,4.9-2.87,7.17-1.13,2.27-2.14,4.49-3.33,6.46-.36.6-.8,1.26-1.15,1.76,1.47-1.87,2.49-4.05,3.63-6.29,1.13-2.24,2.29-4.55,3.2-6.97.91-2.41,1.57-5.02,1.15-7.62-.22-1.28-.68-2.54-1.44-3.61-.76-1.07-1.87-1.92-3.12-2.32-2.3-.76-4.92-.2-6.89,1.28-1.97,1.5-3.19,3.71-3.88,5.96-.41,1.22-.68,2.48-.84,3.74-.34,2.58-.24,5.24.29,7.78.23,1.13.65,2.68,1.23,3.98.57,1.3,1.31,2.33,1.82,2.54-.29-.65-.7-1.34-.9-2,.15.22.35.46.51.72-.12-.27-.23-.57-.36-.81.11.2.25.39.35.44-.12-.32-.39-.75-.54-.99-.08-.14-.49-.79-.53-1,.31.48.67,1.09.99,1.44-.06-.18-.14-.35-.19-.52.14.19.33.59.45.66-.17-.43-.38-.79-.52-1.25-.13-.37-.22-.71-.36-1.06.19.41.42.96.64,1.21-.04-.2-.12-.4-.21-.6.02.02.04.03.05.03-.03-.09-.05-.21-.08-.3.02,0,.03-.04.06-.02h-.04"/>
              <path class="cls-4" d="m26.6,22.55c-.17-.45-.37-1.11-.45-1.55"/>
              <path class="cls-2" d="m37.13.7s.4.13,1.02.54c.62.4,1.44,1.12,2.08,2.21.65,1.09,1.14,2.53,1.25,4.15.11,1.62-.15,3.37-.66,5.09-1.01,3.46-2.76,6.88-4.3,9.9-.78,1.51-1.58,2.92-2.47,4.1-.87,1.19-1.85,2.14-2.71,2.84"/>
            </g>
            <path class="cls-2" d="m40.75,10.44s-.09.56-.34,1.51c-.25.94-.68,2.26-1.28,3.77-.59,1.51-1.36,3.21-2.18,4.96-.82,1.75-1.62,3.56-2.62,5.22"/>
          </g>
        </g>
      </g>
      <g>
        <path class="cls-5" d="m24.69,29.32c-4.71-2.11-8.72-5.84-11.22-10.43-1.52-2.8-2.5-6.06-1.92-9.2.58-3.13,3.03-6.02,6.16-6.32,2.29-.22,4.57.95,6.15,2.66,1.58,1.72,2.53,3.93,3.23,6.16.87,2.81,1.37,5.73,1.74,8.65.41,3.16.64,6.51-.71,9.37"/>
        <g class="cls-8">
          <g>
            <g>
              <path class="cls-4" d="m21.3,26.72c-.4-.29-.81-.58-1.21-.83-.84-.56-1.27-1.35-2.03-1.95-.96-.78-1.56-1.86-2.37-2.83-1.49-1.78-2.89-3.88-3.4-6.21-.48-2.16-.48-4.35.24-6.21.72-1.85,2.21-3.44,3.99-3.95,2.04-.66,4.47.36,6.11,1.99.61.57,1.38,1.66,1.96,2.85.6,1.19,1.06,2.45,1.45,3.18-.74-2.05-1.5-4.15-2.71-5.77,1.47,1.66,2.38,3.9,3.08,6.21.71,2.31,1.2,4.69,1.67,7.03-.41-2.19-.85-4.37-1.43-6.49-.58-2.12-1.26-4.18-2.35-5.97-1.07-1.78-2.64-3.26-4.61-3.95-.98-.35-2.04-.43-3.09-.25-1.04.2-2.06.66-2.93,1.33.95-.84,2.17-1.47,3.49-1.65,1.33-.19,2.69.12,3.88.73,2.42,1.24,4,3.65,4.96,6.17.96,2.54,1.55,5.23,2.06,7.81.48,2.61,1.01,5.1,1.24,7.49.07.73.11,1.55.13,2.19.06-2.48-.42-4.95-.88-7.53-.46-2.58-.93-5.24-1.67-7.85-.74-2.59-1.77-5.22-3.76-7.12-.99-.94-2.19-1.67-3.51-2.03-1.32-.37-2.79-.28-4.04.24-2.32.95-4.04,3.06-4.79,5.48-.73,2.45-.46,5.07.33,7.39.39,1.28.94,2.52,1.59,3.67,1.32,2.38,3.07,4.55,5.14,6.31.91.79,2.26,1.8,3.58,2.49,1.32.7,2.58,1.05,3.14.9-.67-.34-1.45-.62-2.05-1.03.27.08.58.15.89.26-.27-.14-.56-.32-.82-.42.22.09.45.16.57.13-.31-.18-.81-.36-1.08-.46-.15-.07-.91-.33-1.08-.49.56.2,1.25.47,1.74.55-.17-.1-.34-.19-.5-.3.24.06.65.27.8.25-.42-.23-.82-.4-1.24-.68-.35-.22-.63-.44-.98-.63.42.22.97.52,1.31.58-.16-.14-.36-.24-.56-.35.03,0,.05,0,.06,0-.08-.05-.18-.14-.26-.2,0-.02,0-.05.03-.05l-.03.03"/>
              <path class="cls-4" d="m21.08,28.3c-.43-.27-1.03-.66-1.37-.98"/>
              <path class="cls-2" d="m16.16,3.34s.41-.17,1.18-.26c.76-.11,1.9-.07,3.15.4,1.24.46,2.58,1.35,3.67,2.64,1.1,1.29,1.95,2.93,2.59,4.7,1.29,3.54,1.97,7.49,2.56,10.98.29,1.75.49,3.43.49,4.97.01,1.54-.2,2.92-.44,4.03"/>
            </g>
            <path class="cls-2" d="m25.31,8.95s.27.53.64,1.48c.37.95.83,2.33,1.26,3.97.44,1.64.86,3.54,1.27,5.52.41,1.98.87,4,1.05,6.01"/>
          </g>
        </g>
      </g>
      <g>
        <path class="cls-5" d="m22.72,32.05c-4.53,1.61-9.53,1.63-14.01.07-2.74-.96-5.37-2.59-6.85-5.16-1.48-2.57-1.52-6.18.45-8.44,1.45-1.65,3.72-2.33,5.84-2.16,2.12.17,4.11,1.08,5.93,2.19,2.29,1.39,4.39,3.1,6.4,4.89,2.18,1.94,4.36,4.12,5.14,7"/>
        <g class="cls-8">
          <g>
            <g>
              <path class="cls-4" d="m18.79,32.43c-.45.05-.9.13-1.33.21-.92.16-1.7-.12-2.59-.04-1.14.09-2.21-.29-3.36-.43-2.11-.27-4.38-.84-6.13-2.16-1.63-1.22-2.91-2.77-3.45-4.51-.56-1.73-.45-3.72.45-5.19,1-1.72,3.16-2.64,5.24-2.61.75-.02,1.93.22,3.05.66,1.13.43,2.21,1.01,2.93,1.26-1.76-.95-3.55-1.9-5.36-2.21,2,.16,4.01,1.12,5.89,2.27,1.9,1.15,3.69,2.5,5.43,3.83-1.62-1.27-3.24-2.51-4.93-3.61-1.69-1.1-3.42-2.1-5.25-2.61-1.82-.52-3.8-.48-5.53.35-.86.41-1.62,1.03-2.22,1.82-.58.79-1,1.73-1.22,2.71.16-1.16.61-2.33,1.38-3.3.77-.97,1.85-1.66,3.04-2.03,1.18-.38,2.45-.44,3.68-.24,1.23.2,2.41.65,3.52,1.21,2.23,1.14,4.26,2.65,6.19,4.13,1.92,1.52,3.81,2.91,5.42,4.44.49.46,1.02,1.01,1.42,1.45-1.47-1.77-3.3-3.19-5.19-4.71-1.88-1.51-3.83-3.07-5.94-4.42-2.09-1.34-4.44-2.49-6.99-2.47-1.26.02-2.53.32-3.63.95-1.1.63-2.02,1.62-2.55,2.75-1,2.08-.99,4.57-.1,6.75.91,2.21,2.67,3.93,4.66,5.08,1.06.66,2.21,1.19,3.38,1.58,2.39.83,4.96,1.21,7.48,1.08,1.12-.05,2.67-.23,4-.62,1.33-.38,2.4-.97,2.66-1.45-.66.2-1.37.52-2.03.62.23-.12.48-.28.75-.41-.27.08-.57.14-.82.24.2-.09.4-.19.46-.29-.33.08-.76.28-1.01.39-.14.06-.82.38-1.03.38.5-.23,1.13-.5,1.5-.77-.18.04-.35.09-.52.11.2-.12.6-.24.69-.36-.43.11-.8.26-1.26.34-.37.08-.71.11-1.06.2.42-.13.98-.27,1.24-.46-.2,0-.4.07-.59.12.02-.02.03-.03.04-.05-.09.02-.21.02-.3.04,0-.02-.03-.04-.01-.06v.04"/>
              <path class="cls-4" d="m19.67,33.74c-.46.1-1.12.21-1.55.21"/>
              <path class="cls-2" d="m1.16,19.55s.18-.36.62-.92c.44-.56,1.21-1.28,2.33-1.79,1.12-.51,2.57-.8,4.13-.64,1.56.15,3.17.74,4.7,1.56,3.07,1.64,5.94,3.98,8.48,6.04,1.27,1.04,2.43,2.09,3.37,3.17.94,1.07,1.64,2.17,2.15,3.1"/>
            </g>
            <path class="cls-2" d="m10.8,17.42s.51.19,1.35.61c.84.42,1.99,1.09,3.3,1.95,1.31.86,2.75,1.93,4.24,3.04,1.49,1.12,3.04,2.24,4.4,3.53"/>
          </g>
        </g>
      </g>
      <path class="cls-3" d="m20.3,26.84c-.02.13-.04.27-.05.4-.11,1.05-.16,2.12.09,3.14s.82,2,1.72,2.53c.47.27,1.01.42,1.44.74,1.12.82,1.57,1.85,3.13,1.85,2.01,0,4.47-.02,5.99-1.56.71-.72,1.1-1.7,1.61-2.59.43-.76.96-1.47,1.32-2.27.42-.93.51-2.22.3-3.22-.45-2.09-1.76-3.11-3.07-4.67-.25-.3-.5-.64-.85-.81-.39-.19-.85-.15-1.29-.17-1.72-.08-3.41-1.15-5.07-.7-.69.19-1.29.62-1.82,1.11-1.66,1.53-3.1,3.94-3.46,6.22Z"/>
      <path class="cls-1" d="m13.57,18.53c.15.17.3.34.47.5.15.14.28.18.44.27.19.11.3.3.42.47.09.12.19.26.31.34.07.05.14.1.2.15.08.06.18.13.25.2.06.06.07.09.14.14.05.03.1.05.15.07s.09.08.14.09c.06.02.12,0,.18.01.1.03.2.12.3.16.13.06.23.16.36.22.07.03.14.05.2.08.15.08.3.17.44.25.26.15.53.3.78.48.21.15.46.26.68.4.11.07.22.13.33.19.13.07.25.15.37.23.22.13.43.32.63.47.22.17.44.34.68.5.2.13.42.28.56.48.04.05.06.11.1.17.05.07.13.11.17.17.09.12.15.26.24.38.09.14.15.29.24.42.07.1.13.17.17.29.1.27.21.53.31.8.09.24.2.46.27.7.05.16.11.3.18.44.03.07.06.13.1.2s.11.14.14.21c.03.08.04.15.07.22.04.1.02.19.03.28.02.12.12.19.18.29.05.09.11.18.17.27.08.13.13.27.2.41.05.1.08.22.13.33.04.07.09.14.09.23,0,.11,0,.2.03.29,0,.03.04.07.04.1.01.06,0,.12.01.18.03.07.07.14.11.21.07.15.14.3.21.45.13.3.26.6.38.91.1.24.19.47.29.7.11.24.22.48.32.73.12.3.22.61.31.92-.02-.96-.09-1.92-.26-2.85-.21-1.15-.59-2.25-1.12-3.25-.23-.44-.43-.88-.59-1.36-.16-.46-.28-.92-.44-1.38-.15-.45-.32-.88-.55-1.28-.17-.29-.4-.71-.73-.82-.12-.04-.21-.08-.3-.18-.16-.17-.4-.3-.6-.45-.56-.45-1.11-.9-1.67-1.35-.25-.19-.51-.36-.74-.57s-.46-.45-.71-.66c-.1-.08-.21-.11-.31-.18s-.2-.16-.29-.23c-.22-.17-.49-.31-.69-.5-.24-.23-.51-.42-.72-.68-.1-.12-.21-.21-.34-.31-.16-.12-.27-.28-.43-.39-.22-.15-.44-.33-.68-.46-.16-.09-.32-.25-.5-.27-.1,0-.21.03-.31,0-.08-.02-.16-.12-.24-.17-.16-.09-.32-.19-.48-.29s-.29-.21-.42-.34-.26-.3-.43-.36c-.05.13-.03.38-.01.52.02.15.06.34.11.48.1.31.25.62.48.85.15.16.3.33.44.49Z"/>
      <path class="cls-1" d="m27,13.08c-.07-.1-.09-.21-.19-.3-.04-.04-.07-.07-.11-.11-.02-.03-.09-.14-.1-.15-.13-.1-.21.16-.27.27-.02.03-.08.12-.09.16-.02.07,0,.14,0,.21-.03.16-.1.31-.13.46-.06.3,0,.68,0,.99s.16.64.28.93c.06.14.1.27.15.4.06.16.15.3.22.46.06.14.15.27.22.4.07.14.1.32.14.47.04.13.1.26.11.4.02.17.04.33.11.5.07.18.11.36.14.55.02.18.12.38.19.56.12.32.14.65.25.99s.19.75.26,1.1c.01.06.06.16.08.23.02.09.02.18.04.26,0,.03.04.03.05.07.01.05,0,.1,0,.15.01.06.05.14.07.21.04.14.14.28.17.45.02.08.05.17.06.25.02.09-.02.19,0,.28.02.11.06.16.06.28,0,.08-.02.2,0,.28s.06.13.07.21c0,.08-.03.18,0,.25.02.07.06.07.08.15.04.18,0,.42,0,.6.13-.71.24-1.41.31-2.11.08-.85.08-1.68,0-2.43-.03-.33-.05-.66-.05-1.02,0-.14.03-.27.03-.41,0-.22-.03-.45.02-.67.02-.08.04-.14.05-.22.02-.26,0-.54,0-.8,0-.18.01-.33-.06-.5-.06-.14-.14-.25-.23-.37-.2-.27-.44-.53-.62-.81-.06-.1-.12-.22-.17-.32-.03-.06-.06-.14-.08-.19-.03-.08-.09-.15-.12-.22s-.03-.15-.06-.23c-.02-.05-.06-.11-.07-.16-.04-.15-.06-.31-.14-.44-.14-.24-.26-.48-.4-.71-.06-.09-.13-.17-.2-.26-.02-.02-.03-.04-.04-.06Z"/>
      <path class="cls-1" d="m38.4,15.61c-.07.15-.14.31-.18.45s-.13.3-.17.45c-.1.31-.24.64-.38.95-.08.17-.18.34-.27.51-.06.1-.14.2-.17.32,0,.04,0,.09,0,.13-.04.15-.18.29-.26.42-.11.17-.23.33-.35.51-.33.5-.65,1-.95,1.52-.15.25-.31.49-.46.74-.06.1-.09.22-.14.32-.06.12-.13.24-.18.37-.09.2-.19.4-.28.6-.06.15-.15.31-.15.47,0,.06.02.11.04.17.01.05,0,.09,0,.14,0,.2-.03.4-.07.59-.08.38-.26.85-.63,1.48-.43.73-1.01,1.57-1.61,2.41-.15.21-.29.42-.44.62-.15.22-.29.43-.45.64-.19.26-.39.53-.59.8.69-.81,1.37-1.62,2.01-2.42.78-.99,1.49-1.95,2.08-2.85.26-.39.53-.78.84-1.2.29-.4.6-.81.89-1.2.29-.39.56-.78.79-1.13.24-.38.42-.72.53-.99.12-.3.22-.6.3-.91.06-.22.1-.47.19-.68s.22-.38.29-.6c.09-.25.17-.5.25-.74.08-.25.19-.45.21-.7s.22-.48.36-.7c.08-.12.16-.26.23-.38.06-.1.08-.21.12-.31.04-.11.09-.2.12-.31.03-.09.05-.16.06-.25.02-.08.05-.11.06-.18s-.02-.15,0-.22c.01-.06.05-.09.07-.15.02-.08-.02-.17,0-.25,0-.07.05-.1.06-.16.03-.15-.02-.31.02-.46s.05-.27.05-.43c0-.1,0-.21,0-.31,0-.09.05-.15.07-.24.03-.15,0-.34,0-.49,0-.17.04-.28.06-.43.02-.16,0-.34,0-.5s0-.33,0-.49.08-.32.06-.47c-.11.09-.19.39-.23.53-.08.26-.14.51-.2.77-.05.21-.12.44-.2.65s-.16.43-.27.62c-.19.32-.28.72-.46,1.05-.08.15-.19.3-.26.46-.06.13-.04.27-.08.41-.02.09-.07.17-.11.25-.1.25-.08.52-.21.77-.01.02-.02.05-.04.07Z"/>
      <path class="cls-1" d="m11.26,32.77c.13.02.25.02.39.02.49,0,.98,0,1.48,0,.21,0,.44-.03.65.02.39.09.78.09,1.18.15.45.07.9.13,1.36.2.9.14,1.79.26,2.42.2.59-.06.98-.25,1.32-.44.35-.19.65-.4,1.08-.55.42-.14.95-.22,1.69-.17.86.07,1.86.27,2.88.48.25.05.5.11.75.15.26.05.51.1.77.15.32.07.64.15.97.23-1-.36-2-.7-2.98-.99-1.21-.36-2.37-.63-3.44-.81-.47-.08-.94-.17-1.44-.29-.11-.03-.23-.08-.34-.08-.02,0-.03,0-.05,0-.06,0-.1-.05-.15-.07-.13-.05-.26-.11-.38-.17-.12-.05-.23-.07-.35-.09-.13-.02-.25-.08-.38-.1-.2-.04-.4-.03-.6-.06-.18-.03-.38,0-.56,0-.51,0-1,.15-1.5.23-.08.01-.15.05-.24.07-.07.01-.13.03-.2.06-.11.04-.22.08-.34.12-.13.05-.28.09-.42.13-.04.01-.08,0-.12.02-.03,0-.06.03-.1.04-.08.02-.17.02-.26.03-.58.13-1.18.04-1.78.04-.36,0-.76.05-1.12-.01-.45-.08-.9-.21-1.35-.3-.41-.08-.83-.17-1.24-.29-.22-.07-.42-.17-.63-.25-.2-.07-.41-.12-.6-.18-.3-.1-.6-.21-.89-.32s-.59-.25-.9-.34c-.24-.07-.55-.15-.79-.08.02.11.25.23.33.3.12.09.24.19.37.27.34.23.64.52.99.75.94.61,1.96,1.21,3,1.56.29.1.59.14.89.2.12.02.24.1.37.13.08.02.16.03.24.04Z"/>
      <path class="cls-1" d="m35.38,29.27c.33,0,.6-.08.92-.17.27-.08.56-.11.83-.18.31-.07.64-.06.94-.15.44-.12.9-.19,1.35-.28.39-.08.76-.2,1.15-.29s.72-.28,1.06-.43.74-.24,1.1-.37c.32-.11.68-.13,1-.2.2-.05.5-.16.71-.08-.01.11-.19.16-.27.2-.17.09-.32.18-.48.28-.29.18-.6.3-.88.49-.51.36-1.09.57-1.64.85-.16.08-.33.11-.49.17-.2.07-.42.12-.62.19-.38.13-.78.21-1.17.31-.42.11-.86.27-1.3.28-.19,0-.36.06-.56.06-.22,0-.41.05-.62.06-.54.02-1.02.31-1.48.55"/>
    </g>
  </g>
</svg>