<?xml version="1.0" encoding="UTF-8"?>
<svg xmlns="http://www.w3.org/2000/svg" viewBox="0 0 58.91 105.14">
  <defs>
    <style>
      .cls-1 {
        fill: #c91f1f;
        mix-blend-mode: multiply;
      }

      .cls-1, .cls-2, .cls-3, .cls-4, .cls-5, .cls-6 {
        stroke-width: 0px;
      }

      .cls-2 {
        fill: none;
        stroke: #202020;
      }

      .cls-7 {
        opacity: .8;
      }

      .cls-8 {
        opacity: .7;
      }

      .cls-9 {
        isolation: isolate;
      }

      .cls-4 {
        fill: #202020;
      }

      .cls-5 {
        fill: #e50516;
      }

      .cls-6 {
        fill: #fff;
      }
    </style>
  </defs>
  <g class="cls-9">
    <g id="Layer_1" data-name="Layer 1">
      <g class="cls-7">
        <path class="cls-6" d="m31.17,102.41c-.68,2.18.59-.34-.08,1.84,2.92-7.88,2.8-11.56,3.48-20.04-.88,5.84-1.76,11.68-2.65,17.51.68-3.75,1.37-7.49,2.05-11.24-.48,2.9-.89,5.82-1.56,8.67-.16.74-.38,1.41-.58,2.1l-.35,1.35c-.03.13-.07.27-.09.4.27-.52,1.21-3.61,1.91-6.88,2.12-9.58,1.87-19.61.53-29.33-.61-4.43-1.33-8.84-1.81-13.28-.56-5.21-.13-10.29-.07-15.48-.04-.05-.08-.1-.1-.2l-.02-.66c-.08-.14-.18-.11-.24-.2-.26-.02-.44-.98-.69-.79-.07.08-.19,1.37-.36,1.94-.05.13-.11-.19-.19-.33-.06.76-.16.8-.22.48-.02.18-.04.35-.04.36,0-.04-.09-.15-.11-.18.16.54-.13,1.39-.19,1.95-.08.79-.13,1.57-.14,2.37-.04,2.81.5,5.54.93,8.29.44,2.76.88,5.52,1.28,8.29.17,1.03.3,2.03.44,3.03.05.37.11.74.16,1.08,1.06,7.51,1.38,13.06,1.22,20.43-.08,3.72-.47,7.53-1.1,11.15-.63,3.63-1.5,7.07-2.44,10.1"/>
      </g>
      <g>
        <path class="cls-5" d="m31.84,30.15c1.75-5.15,5.27-9.66,9.84-12.64,2.79-1.82,6.11-3.09,9.46-2.69,3.34.39,6.62,2.79,7.24,6.08.46,2.41-.54,4.91-2.19,6.71-1.65,1.79-3.87,2.97-6.15,3.86-2.86,1.12-5.87,1.86-8.9,2.46-3.27.65-6.77,1.14-9.9-.08"/>
        <g class="cls-8">
          <g>
            <g>
              <path class="cls-4" d="m34.21,26.34c.27-.44.53-.9.76-1.34.51-.93,1.29-1.46,1.86-2.31.73-1.08,1.81-1.8,2.76-2.73,1.75-1.7,3.85-3.33,6.25-4.04,2.23-.67,4.53-.8,6.54-.14,2,.64,3.77,2.1,4.5,3.94.42,1.07.5,2.25.22,3.43-.27,1.17-.89,2.3-1.64,3.25-.54.7-1.61,1.6-2.81,2.32-1.2.72-2.49,1.31-3.23,1.77,2.1-.93,4.23-1.9,5.81-3.33-1.6,1.7-3.89,2.84-6.25,3.75-2.37.92-4.84,1.61-7.25,2.26,2.27-.58,4.52-1.2,6.7-1.97,2.18-.77,4.29-1.65,6.06-2.95,1.77-1.28,3.15-3.1,3.64-5.23.25-1.06.22-2.19-.08-3.27-.32-1.07-.89-2.09-1.65-2.95.95.93,1.71,2.14,2.04,3.5.33,1.36.17,2.83-.34,4.13-.51,1.31-1.36,2.49-2.41,3.45-1.05.96-2.28,1.71-3.56,2.33-2.59,1.22-5.36,2.04-8.04,2.76-2.7.69-5.28,1.43-7.77,1.82-.76.12-1.62.21-2.29.27,2.6-.09,5.16-.76,7.83-1.42,2.67-.66,5.43-1.36,8.11-2.34,2.65-.98,5.33-2.29,7.11-4.57.88-1.13,1.5-2.47,1.73-3.89.23-1.42-.01-2.93-.67-4.18-1.2-2.32-3.49-3.97-6.06-4.61-2.6-.62-5.33-.18-7.72.82-1.32.51-2.57,1.18-3.73,1.95-2.39,1.57-4.51,3.6-6.17,5.92-.74,1.02-1.68,2.53-2.27,3.98-.61,1.44-.86,2.8-.67,3.35.29-.73.51-1.58.88-2.24-.06.29-.11.62-.19.95.12-.3.27-.62.37-.9-.07.24-.13.49-.09.61.16-.35.3-.88.38-1.17.06-.17.27-.98.41-1.17-.17.6-.39,1.34-.43,1.86.09-.18.17-.38.27-.55-.04.26-.22.71-.19.86.2-.47.34-.9.6-1.37.19-.38.4-.71.57-1.09-.19.46-.46,1.06-.5,1.42.13-.19.22-.41.32-.62,0,.03,0,.05.01.06.05-.09.13-.2.18-.29.02,0,.05,0,.06.03l-.04-.03"/>
              <path class="cls-4" d="m32.6,26.29c.24-.47.6-1.14.9-1.53"/>
              <path class="cls-2" d="m58.23,19.25s.21.41.39,1.2c.19.78.28,1.97-.07,3.33-.35,1.35-1.13,2.84-2.38,4.11-1.24,1.28-2.9,2.31-4.69,3.12-3.61,1.63-7.71,2.63-11.33,3.5-1.82.43-3.57.75-5.18.84-1.61.11-3.06-.03-4.23-.21"/>
            </g>
            <path class="cls-2" d="m53.33,29.37s-.54.33-1.5.8c-.96.47-2.38,1.05-4.07,1.63-1.69.58-3.66,1.16-5.7,1.73-2.05.57-4.14,1.18-6.23,1.5"/>
          </g>
        </g>
      </g>
      <g>
        <path class="cls-5" d="m31.58,28.94c-2.51-5.19-3.44-11.24-2.6-16.93.51-3.48,1.76-6.95,4.19-9.19,2.43-2.24,6.24-2.93,8.97-.94,2,1.46,3.13,4.09,3.33,6.69.21,2.59-.39,5.16-1.23,7.56-1.05,3.02-2.47,5.85-3.99,8.6-1.65,2.97-3.55,5.99-6.44,7.45"/>
        <g class="cls-8">
          <g>
            <g>
              <path class="cls-4" d="m30.48,24.44c-.13-.52-.3-1.04-.46-1.52-.33-1.05-.21-2-.45-3.03-.3-1.31-.13-2.63-.21-4.01-.14-2.52-.02-5.24.94-7.64.89-2.24,2.18-4.23,3.96-5.45,1.76-1.21,4.11-1.6,5.94-.76,2.14.91,3.48,3.54,3.84,6.07.15.92.13,2.38-.11,3.81-.23,1.43-.63,2.84-.76,3.72.66-2.26,1.3-4.6,1.28-6.82.2,2.43-.4,4.98-1.25,7.44-.85,2.48-1.93,4.87-3.02,7.21,1.05-2.17,2.05-4.36,2.88-6.58.83-2.22,1.53-4.47,1.71-6.74.19-2.26-.19-4.57-1.34-6.51-.57-.97-1.38-1.8-2.37-2.39-1-.57-2.17-.89-3.35-.9,1.37-.09,2.83.27,4.03,1.05,1.21.79,2.1,2.01,2.67,3.33,1.18,2.68,1.05,5.78.3,8.6-.75,2.85-1.94,5.57-3.15,8.16-1.25,2.58-2.38,5.09-3.7,7.33-.4.68-.89,1.42-1.29,1.98,1.64-2.11,2.78-4.58,4.04-7.12,1.25-2.54,2.52-5.17,3.52-7.93,1-2.74,1.7-5.7,1.23-8.63-.24-1.45-.74-2.86-1.58-4.08-.82-1.22-2.05-2.2-3.45-2.65-2.58-.86-5.54-.14-7.66,1.6-2.13,1.76-3.41,4.26-4.14,6.78-.44,1.37-.71,2.79-.89,4.2-.35,2.9-.24,5.88.35,8.73.25,1.27.7,3.01,1.34,4.48.62,1.47,1.4,2.65,1.94,2.91-.32-.74-.77-1.52-.99-2.27.16.25.37.53.55.83-.13-.3-.25-.65-.39-.92.12.22.27.45.37.51-.14-.37-.42-.86-.58-1.13-.09-.16-.52-.9-.57-1.14.33.55.7,1.25,1.05,1.66-.07-.2-.15-.39-.21-.59.15.22.35.67.48.76-.19-.49-.41-.9-.57-1.43-.14-.42-.24-.8-.4-1.2.2.47.45,1.1.68,1.39-.04-.23-.14-.46-.23-.68.02.02.04.04.06.04-.04-.1-.06-.24-.09-.34.02,0,.03-.04.06-.02h-.04"/>
              <path class="cls-4" d="m29.33,25.59c-.19-.51-.4-1.25-.49-1.74"/>
              <path class="cls-2" d="m40.86.75s.45.15,1.14.62c.69.46,1.59,1.29,2.29,2.54.71,1.24,1.23,2.87,1.35,4.69.12,1.82-.17,3.8-.71,5.75-1.11,3.92-3.02,7.81-4.74,11.23-.87,1.71-1.75,3.31-2.74,4.64-.97,1.34-2.06,2.4-3.02,3.17"/>
            </g>
            <path class="cls-2" d="m44.89,11.81s-.1.64-.37,1.71c-.27,1.07-.75,2.57-1.41,4.29-.66,1.72-1.5,3.65-2.41,5.63-.91,1.98-1.81,4.04-2.93,5.9"/>
          </g>
        </g>
      </g>
      <g>
        <path class="cls-5" d="m27.14,33.34c-5.2-2.41-9.61-6.66-12.36-11.89-1.68-3.2-2.76-6.91-2.12-10.49.64-3.57,3.34-6.86,6.79-7.21,2.52-.25,5.04,1.08,6.77,3.04,1.74,1.96,2.79,4.48,3.56,7.03.96,3.21,1.51,6.53,1.92,9.86.45,3.6.71,7.43-.78,10.69"/>
        <g class="cls-8">
          <g>
            <g>
              <path class="cls-4" d="m23.32,30.4c-.44-.34-.9-.67-1.34-.97-.94-.66-1.42-1.53-2.26-2.25-1.06-.91-1.73-2.14-2.62-3.26-1.62-2.07-3.13-4.48-3.69-7.12-.53-2.46-.52-4.93.27-7.07.79-2.11,2.44-3.98,4.47-4.61,1.17-.38,2.45-.29,3.67.17,1.22.47,2.35,1.29,3.26,2.24.68.7,1.53,1.96,2.16,3.35.65,1.37,1.14,2.83,1.56,3.67-.79-2.35-1.62-4.76-2.95-6.65,1.61,1.96,2.59,4.54,3.34,7.16.76,2.63,1.29,5.33,1.78,7.98-.43-2.48-.9-4.95-1.53-7.35-.63-2.4-1.36-4.76-2.54-6.82-1.17-2.05-2.89-3.81-5.1-4.62-1.1-.41-2.3-.52-3.49-.3-1.18.23-2.3.79-3.26,1.56,1.05-.96,2.4-1.7,3.9-1.9,1.49-.21,3.04.16,4.35.9,2.7,1.47,4.38,4.28,5.41,7.13,1.04,2.9,1.67,5.93,2.22,8.86.51,2.95,1.08,5.77,1.3,8.47.07.82.1,1.74.11,2.46.1-2.77-.4-5.57-.88-8.49-.49-2.91-1-5.92-1.8-8.88-.8-2.94-1.9-5.92-4.07-8.14-1.08-1.08-2.4-1.96-3.89-2.39-1.48-.45-3.13-.36-4.53.24-2.59,1.1-4.45,3.51-5.25,6.21-.79,2.73-.51,5.64.33,8.26.42,1.44,1.01,2.83,1.72,4.14,1.43,2.7,3.34,5.17,5.62,7.21,1,.91,2.49,2.08,3.96,2.88,1.46.82,2.87,1.26,3.47,1.14-.75-.39-1.62-.73-2.29-1.2.3.1.64.2.98.33-.3-.16-.62-.36-.92-.5.25.1.5.2.63.18-.35-.21-.9-.43-1.2-.55-.17-.08-1.01-.41-1.19-.59.62.26,1.38.59,1.92.7-.19-.12-.38-.22-.56-.35.26.08.72.32.88.32-.48-.27-.92-.48-1.39-.8-.39-.25-.71-.52-1.09-.74.47.26,1.07.62,1.45.71-.18-.16-.41-.28-.62-.41.03,0,.05,0,.07,0-.09-.06-.2-.16-.29-.23,0-.02,0-.05.03-.05l-.03.03"/>
              <path class="cls-4" d="m23.14,32.03c-.48-.31-1.14-.77-1.52-1.13"/>
              <path class="cls-2" d="m17.81,3.74s.46-.19,1.32-.3c.86-.12,2.14-.05,3.53.51,1.38.56,2.84,1.62,4.02,3.11,1.19,1.49,2.09,3.37,2.78,5.37,1.38,4.01,2.11,8.47,2.74,12.42.31,1.98.51,3.87.49,5.59,0,1.72-.25,3.25-.53,4.48"/>
            </g>
            <path class="cls-2" d="m27.96,10.26s.29.61.69,1.7c.4,1.08.89,2.65,1.36,4.52.47,1.86.92,4.02,1.35,6.25.43,2.24.91,4.53,1.08,6.79"/>
          </g>
        </g>
      </g>
      <g>
        <path class="cls-5" d="m24.97,36.45c-4.99,1.83-10.51,1.86-15.45.08-3.02-1.09-5.92-2.95-7.55-5.88-1.63-2.93-1.68-7.05.5-9.62,1.59-1.88,4.1-2.66,6.44-2.47,2.34.19,4.53,1.23,6.54,2.49,2.53,1.59,4.83,3.53,7.05,5.58,2.4,2.21,4.8,4.7,5.67,7.98"/>
        <g class="cls-8">
          <g>
            <g>
              <path class="cls-4" d="m20.6,36.97c-.5.07-1.01.14-1.49.24-1.03.18-1.9-.11-2.9-.04-1.27.08-2.47-.33-3.76-.52-2.36-.35-4.86-1.07-6.79-2.59-1.78-1.41-3.17-3.19-3.74-5.18-.59-1.98-.46-4.2.52-5.91.57-.98,1.42-1.8,2.47-2.32,1.04-.53,2.26-.77,3.43-.77.85-.01,2.18.26,3.43.78,1.26.51,2.47,1.18,3.26,1.49-1.94-1.11-3.95-2.22-5.98-2.57,2.25.2,4.48,1.33,6.57,2.66,2.1,1.33,4.06,2.89,5.98,4.42-1.77-1.46-3.56-2.89-5.42-4.16-1.87-1.27-3.78-2.42-5.84-3.02-2.04-.61-4.27-.53-6.18.45-.95.48-1.78,1.21-2.42,2.1-.62.9-1.06,1.95-1.31,3.04.19-1.28.66-2.58,1.49-3.68.83-1.09,2.02-1.9,3.33-2.33,1.31-.44,2.74-.52,4.1-.29,1.37.23,2.68.75,3.92,1.39,2.47,1.32,4.71,3.04,6.83,4.75,2.1,1.74,4.17,3.35,5.91,5.11.53.54,1.1,1.17,1.52,1.67-1.56-2.02-3.56-3.68-5.62-5.41-2.07-1.73-4.2-3.52-6.53-5.06-2.31-1.53-4.92-2.87-7.77-2.82-1.4.03-2.81.39-4.02,1.12-1.21.73-2.19,1.84-2.75,3.1-1.07,2.31-1.06,5.03-.16,7.45.93,2.45,2.8,4.44,4.98,5.78,1.16.76,2.42,1.37,3.72,1.84,2.65.97,5.5,1.42,8.31,1.29,1.24-.05,2.97-.25,4.45-.68,1.48-.42,2.67-1.07,2.97-1.57-.73.23-1.52.58-2.25.71.26-.13.54-.3.84-.44-.3.09-.64.17-.91.27.23-.09.45-.2.52-.31-.36.09-.85.31-1.13.43-.16.06-.91.4-1.15.4.56-.24,1.27-.53,1.68-.82-.2.04-.39.1-.58.13.22-.12.67-.27.77-.38-.48.13-.9.29-1.41.38-.41.09-.79.12-1.18.23.47-.14,1.09-.29,1.39-.49-.22.01-.44.08-.66.14.02-.02.04-.03.04-.05-.1.02-.23.02-.33.04,0-.02-.03-.04-.02-.06v.04"/>
              <path class="cls-4" d="m21.56,38.26c-.51.11-1.24.24-1.72.24"/>
              <path class="cls-2" d="m1.24,22.21s.19-.41.67-1.03c.48-.63,1.31-1.45,2.55-2.04,1.23-.59,2.86-.93,4.59-.74,1.74.18,3.53.87,5.22,1.81,3.39,1.89,6.54,4.57,9.32,6.93,1.39,1.2,2.65,2.41,3.64,3.63,1,1.22,1.73,2.45,2.26,3.48"/>
            </g>
            <path class="cls-2" d="m11.9,19.73s.57.22,1.5.71c.93.48,2.21,1.26,3.65,2.25,1.44,1,3.03,2.22,4.66,3.51,1.63,1.29,3.32,2.6,4.78,4.08"/>
          </g>
        </g>
      </g>
      <path class="cls-3" d="m22.88,30.94c-.02.13-.04.27-.05.4-.11,1.05-.16,2.12.09,3.14s.82,2,1.72,2.53c.47.27,1.01.42,1.44.74,1.59,1.17,4.35,2.48,6.38,1.6,2.03-.88,3.3-2.05,4.35-3.9.83-1.46,1.62-2.41,1.48-4.14-.13-1.56-.49-3.21-1.65-4.34-1.71-1.68-3.5-2.31-5.81-2.56-1.53-.17-2.82-.32-4.12.71-1.85,1.47-3.47,3.42-3.84,5.82Z"/>
      <path class="cls-1" d="m14.88,21.03c.17.2.33.39.52.57.16.16.31.2.49.31.21.12.33.35.46.54.1.14.21.29.35.39.07.05.15.11.22.17.08.07.2.15.27.23.07.07.07.1.16.16.05.03.11.05.16.08s.1.09.16.1c.07.02.13,0,.2.01.11.04.22.13.33.18.14.07.26.18.4.25.08.04.15.05.23.09.17.09.33.19.49.28.29.17.59.34.86.55.23.18.51.29.75.45.12.08.24.14.37.21.14.08.27.18.41.26.24.15.47.36.69.54.24.2.49.39.74.57.22.15.47.31.62.55.04.06.07.13.11.19.05.08.14.12.19.19.09.13.17.29.26.43.1.16.17.33.27.48.07.11.14.19.19.33.11.31.23.6.34.91.1.27.22.53.3.8.05.18.12.34.2.51.04.07.07.15.11.23s.12.16.15.24c.03.09.04.17.08.26.05.11.02.21.04.32.02.13.13.22.19.33.06.1.12.2.18.3.09.15.15.31.22.47.06.12.09.25.14.37.04.08.1.16.1.26,0,.12,0,.22.03.33.01.04.04.08.05.12.02.07-.01.14.01.2.03.08.08.16.12.24.08.17.16.34.23.51.15.34.29.69.42,1.04.11.27.21.54.32.8.12.28.25.55.35.83.13.34.24.69.34,1.05-.02-1.09-.1-2.18-.29-3.25-.24-1.31-.65-2.57-1.23-3.7-.26-.5-.47-1-.65-1.55-.17-.52-.31-1.05-.48-1.57-.16-.51-.35-1.01-.61-1.45-.19-.33-.45-.8-.8-.93-.13-.05-.23-.09-.34-.2-.18-.2-.45-.34-.66-.52-.62-.51-1.22-1.03-1.84-1.54-.27-.22-.56-.41-.82-.65s-.51-.52-.79-.75c-.11-.09-.23-.13-.34-.21s-.22-.18-.32-.27c-.25-.2-.53-.35-.76-.58-.27-.26-.56-.48-.8-.78-.11-.14-.23-.24-.37-.35-.18-.13-.3-.32-.48-.44-.24-.18-.48-.38-.75-.53-.18-.1-.35-.28-.55-.3-.11-.01-.23.03-.34,0-.09-.03-.18-.14-.26-.19-.18-.11-.35-.22-.53-.33s-.31-.23-.46-.39-.28-.34-.48-.41c-.05.15-.04.43-.02.59.02.17.07.39.12.54.11.35.27.7.53.97.17.18.33.37.49.56Z"/>
      <path class="cls-1" d="m29.69,14.81c-.07-.11-.1-.24-.21-.34-.04-.04-.08-.08-.12-.12-.03-.03-.09-.16-.11-.17-.15-.11-.23.18-.3.31-.02.04-.08.14-.09.18-.02.08.01.16,0,.24-.03.18-.11.36-.14.53-.07.34,0,.78,0,1.13s.18.73.31,1.06c.06.16.12.31.16.46.06.18.17.35.24.53.06.16.17.31.24.45.08.16.11.36.15.53.04.15.11.3.12.45.02.2.05.38.12.57.08.21.12.41.15.63.03.21.13.44.21.63.14.37.15.75.27,1.13s.21.85.29,1.25c.01.07.07.18.09.26.02.1.02.2.05.3,0,.03.05.03.06.08.01.06,0,.12,0,.17.01.07.05.16.08.24.05.16.15.32.19.51.02.09.05.19.07.28.02.1-.02.21,0,.32.03.12.06.18.06.32,0,.09-.02.23,0,.32s.06.14.07.24c.01.09-.03.2,0,.29.02.08.06.07.09.17.05.2,0,.48,0,.68.15-.81.27-1.61.34-2.4.09-.97.09-1.92,0-2.78-.04-.38-.06-.76-.05-1.17,0-.16.03-.31.03-.47,0-.25-.03-.51.03-.76.02-.09.05-.16.05-.25.02-.3,0-.61,0-.91,0-.2.01-.38-.07-.57-.07-.15-.16-.28-.26-.42-.22-.31-.48-.6-.68-.93-.07-.11-.13-.25-.19-.37-.03-.06-.07-.16-.09-.22-.03-.1-.1-.17-.13-.26s-.03-.18-.06-.27c-.02-.06-.06-.13-.08-.18-.05-.17-.07-.35-.16-.5-.16-.27-.29-.55-.44-.81-.06-.11-.14-.2-.22-.3-.02-.02-.03-.04-.05-.07Z"/>
      <path class="cls-1" d="m42.25,17.7c-.08.17-.16.35-.2.52s-.14.34-.19.51c-.11.36-.26.73-.41,1.08-.08.19-.2.39-.3.58-.06.12-.16.23-.18.36,0,.05,0,.1,0,.15-.04.17-.2.34-.28.48-.12.2-.26.38-.38.58-.36.57-.72,1.14-1.05,1.73-.16.28-.34.56-.5.84-.07.11-.1.25-.15.37-.07.14-.14.28-.2.42-.1.23-.21.45-.3.68-.07.17-.16.35-.17.54,0,.07.02.13.04.2.01.05.01.1,0,.15-.01.23-.03.45-.08.67-.09.43-.29.98-.69,1.69-.47.83-1.11,1.79-1.77,2.75-.16.24-.33.48-.48.71-.17.25-.32.49-.49.73-.21.3-.43.61-.65.92.77-.92,1.51-1.85,2.22-2.76.86-1.13,1.64-2.23,2.3-3.25.28-.44.59-.89.92-1.37.32-.45.66-.92.99-1.37.32-.44.62-.88.87-1.29.27-.43.47-.82.59-1.13.13-.34.24-.68.33-1.03.07-.25.11-.54.21-.78s.24-.43.32-.68c.09-.28.18-.57.27-.85.09-.28.21-.51.23-.8s.24-.55.4-.8c.09-.14.18-.29.26-.44.06-.12.09-.24.13-.35.05-.12.1-.23.14-.35.03-.1.05-.18.07-.28.02-.09.05-.13.07-.21s-.02-.17,0-.25c.02-.07.06-.1.07-.17.02-.09-.02-.2,0-.29.01-.08.05-.12.06-.18.03-.17-.02-.35.02-.52s.05-.31.05-.49c0-.12,0-.24,0-.36,0-.11.05-.18.07-.28.03-.17,0-.39,0-.56,0-.2.05-.32.07-.49.02-.18,0-.38,0-.56s0-.38,0-.56.09-.36.07-.54c-.12.11-.21.45-.26.61-.09.3-.16.58-.22.88-.05.24-.14.5-.22.74s-.17.5-.29.7c-.21.37-.31.82-.51,1.2-.09.17-.21.34-.28.52-.06.15-.05.31-.08.47-.03.1-.08.19-.12.29-.11.28-.09.6-.23.87-.01.03-.03.05-.04.08Z"/>
      <path class="cls-1" d="m12.34,37.27c.14.02.28.02.43.02.54,0,1.08,0,1.63,0,.23,0,.49-.03.72.03.43.1.86.1,1.3.17.5.08.99.15,1.5.23.99.16,1.97.3,2.67.22.65-.07,1.08-.28,1.46-.5.38-.22.72-.46,1.19-.63.46-.16,1.05-.26,1.86-.19.95.07,2.05.31,3.17.55.28.06.55.12.83.18.29.06.56.11.85.17.35.08.71.17,1.07.26-1.1-.41-2.2-.8-3.28-1.13-1.33-.41-2.62-.72-3.79-.92-.51-.09-1.03-.19-1.59-.33-.12-.03-.25-.09-.38-.09-.02,0-.03,0-.05,0-.06,0-.11-.05-.16-.08-.14-.06-.28-.13-.42-.19-.13-.06-.25-.08-.38-.11-.14-.02-.27-.09-.42-.11-.22-.04-.44-.04-.66-.07-.2-.03-.42,0-.62,0-.56,0-1.1.17-1.65.26-.09.01-.17.06-.26.08-.08.01-.14.04-.22.06-.12.05-.25.09-.37.14-.15.06-.31.1-.46.15-.04.01-.09.01-.13.02-.04,0-.07.04-.11.05-.09.02-.19.02-.28.04-.64.15-1.3.05-1.96.05-.4,0-.84.06-1.23-.01-.5-.1-.99-.24-1.49-.34-.46-.09-.91-.19-1.36-.33-.24-.08-.46-.19-.7-.28-.22-.08-.45-.13-.67-.21-.33-.12-.66-.24-.98-.37s-.65-.29-.99-.39c-.26-.08-.6-.17-.88-.09.02.13.27.26.37.34.13.1.27.21.41.31.38.26.71.6,1.09.85,1.04.69,2.16,1.38,3.31,1.78.32.11.65.16.98.23.13.03.26.11.4.14.09.02.18.04.26.05Z"/>
      <path class="cls-1" d="m38.92,33.28c.37,0,.67-.09,1.02-.2.3-.09.62-.13.92-.2.34-.08.71-.07,1.04-.17.48-.14.99-.21,1.48-.32.43-.09.84-.23,1.26-.33s.8-.32,1.17-.49.81-.28,1.21-.43c.35-.13.74-.14,1.1-.23.22-.05.55-.18.78-.09-.01.12-.2.18-.3.23-.19.1-.35.2-.53.32-.32.21-.67.34-.97.56-.56.41-1.2.64-1.8.97-.17.09-.36.12-.54.19-.22.09-.46.14-.68.21-.42.14-.86.24-1.29.35-.46.12-.95.31-1.43.32-.21,0-.4.07-.61.07-.24,0-.45.06-.68.07-.59.03-1.12.36-1.63.63"/>
    </g>
  </g>
</svg>