<?xml version="1.0" encoding="UTF-8"?>
<svg xmlns="http://www.w3.org/2000/svg" viewBox="0 0 54.49 89.49">
  <defs>
    <style>
      .cls-1 {
        fill: #c91f1f;
        mix-blend-mode: multiply;
      }

      .cls-1, .cls-2, .cls-3, .cls-4, .cls-5, .cls-6 {
        stroke-width: 0px;
      }

      .cls-2 {
        fill: none;
        stroke: #202020;
      }

      .cls-7 {
        opacity: .8;
      }

      .cls-8 {
        opacity: .7;
      }

      .cls-9 {
        isolation: isolate;
      }

      .cls-4 {
        fill: #202020;
      }

      .cls-5 {
        fill: #e50516;
      }

      .cls-6 {
        fill: #fff;
      }
    </style>
  </defs>
  <g class="cls-9">
    <g id="Layer_1" data-name="Layer 1">
      <g class="cls-7">
        <path class="cls-6" d="m27.83,87.22c.68,1.81-.59-.28.08,1.53-2.92-6.56-2.8-9.61-3.48-16.67.88,4.86,1.76,9.71,2.65,14.57-.68-3.12-1.37-6.23-2.05-9.35.48,2.41.89,4.84,1.56,7.21.16.62.38,1.17.58,1.75l.35,1.12c.03.11.07.23.09.33-.27-.43-1.21-3-1.91-5.72-2.12-7.97-1.87-16.31-.53-24.4.61-3.68,1.33-7.35,1.81-11.05.56-4.33.13-8.56.07-12.88.04-.04.08-.08.1-.17l.02-.55c.08-.12.18-.09.24-.17.26-.02.44-.81.69-.65.07.07.19,1.14.36,1.61.05.11.11-.16.19-.27.06.63.16.67.22.4.02.15.04.29.04.3,0-.03.09-.12.11-.15-.16.45.13,1.16.19,1.63.08.65.13,1.31.14,1.97.04,2.34-.5,4.61-.93,6.9s-.88,4.59-1.28,6.89c-.17.86-.3,1.69-.44,2.52-.05.31-.11.61-.16.9-1.06,6.25-1.38,10.87-1.22,16.99.08,3.09.47,6.26,1.1,9.27.63,3.02,1.5,5.88,2.44,8.4"/>
      </g>
      <g>
        <path class="cls-5" d="m25.76,26.04c-1.84-4.42-5.24-8.2-9.52-10.57-2.62-1.45-5.69-2.39-8.7-1.88-3.01.51-5.86,2.78-6.26,5.69-.3,2.13.73,4.27,2.31,5.76s3.65,2.4,5.76,3.07c2.65.84,5.41,1.33,8.18,1.71,3,.41,6.19.66,8.96-.57"/>
        <g class="cls-8">
          <g>
            <g>
              <path class="cls-4" d="m24.34,22.14c-.25-.42-.57-.81-.88-1.16-.67-.73-1-1.55-1.76-2.18-.95-.77-1.69-1.75-2.77-2.44-1.99-1.24-4.2-2.17-6.44-2.9-2.12-.68-4.38-.83-6.5-.18-2.09.66-4.04,1.97-5.25,4.13-.71,1.25-.93,2.96-.55,4.49.36,1.54,1.21,2.9,2.27,3.92.76.76,2.03,1.73,3.38,2.36,1.34.66,2.7,1.05,3.53,1.13-2.13-.52-4.4-1.57-6.08-3.19,1.97,1.62,4.35,2.49,6.65,3.11,2.32.62,4.67.96,6.94,1.13-2.12-.19-4.26-.51-6.35-1.06-2.07-.56-4.17-1.31-5.97-2.62-1.8-1.27-3.2-3.24-3.48-5.37-.15-1.06.03-2.13.46-3.03.44-.9,1.1-1.63,1.86-2.17-.81.7-1.5,1.64-1.83,2.76-.33,1.12-.25,2.4.2,3.58.44,1.18,1.22,2.27,2.21,3.15.98.88,2.15,1.56,3.35,2.1,2.43,1.06,5,1.66,7.49,2.02,2.49.33,4.94.55,7.16.23.67-.1,1.4-.29,1.91-.5-2.05.71-4.53.68-6.98.43-2.46-.25-5.01-.71-7.47-1.55-2.43-.82-4.88-2.07-6.4-4.09-.74-.99-1.24-2.15-1.36-3.29-.14-1.15.14-2.25.68-3.14,1-1.65,2.82-2.76,4.68-3.16,1.88-.4,3.91-.14,5.83.5,1.04.39,2.05.87,3.02,1.45,1.99,1.18,3.81,2.68,5.38,4.38.7.75,1.58,1.88,2.32,2.93.76,1.04,1.37,2,1.89,2.22-.25-.64-.65-1.29-.92-1.89.18.18.39.4.56.65-.13-.25-.25-.55-.42-.75.14.17.29.35.39.39-.14-.32-.48-.69-.64-.9-.11-.12-.62-.65-.72-.83.41.37.88.88,1.24,1.19-.09-.17-.18-.33-.26-.49.17.16.41.54.54.6-.23-.41-.48-.75-.74-1.16-.2-.34-.4-.64-.64-.93.31.33.68.82.95,1.02-.09-.19-.21-.38-.34-.55.03.02.05.02.06.02-.06-.08-.11-.2-.17-.28.02-.01.02-.04.05-.04l-.04.02"/>
              <path class="cls-4" d="m23.49,23.47c-.24-.37-.6-.89-.81-1.23"/>
              <path class="cls-2" d="m1.98,18.14s-.18.32-.32.94c-.16.62-.23,1.58.1,2.7.32,1.11,1.05,2.36,2.2,3.39,1.15,1.04,2.66,1.85,4.31,2.45,3.3,1.21,7.05,1.75,10.34,1.97,1.65.1,3.19.04,4.46-.25,1.27-.29,2.25-.8,2.85-1.34"/>
            </g>
            <path class="cls-2" d="m6.03,27.27s.52.3,1.45.69c.93.39,2.28.84,3.88,1.2,1.6.36,3.45.63,5.35.77,1.9.14,3.9.18,5.68-.21"/>
          </g>
        </g>
      </g>
      <g>
        <path class="cls-5" d="m27.13,24.14c1.41-4.89,1.27-10.26-.39-15.03-1.01-2.91-2.68-5.7-5.21-7.23-2.53-1.53-6.03-1.49-8.15.67-1.55,1.59-2.13,4.05-1.9,6.32.23,2.27,1.18,4.38,2.31,6.31,1.42,2.43,3.14,4.63,4.94,6.75,1.94,2.29,4.13,4.58,6.93,5.36"/>
        <g class="cls-8">
          <g>
            <g>
              <path class="cls-4" d="m28.53,20.19c.08-.49.09-.99.08-1.47-.04-1,.28-1.85.11-2.83-.2-1.22-.09-2.46-.43-3.71-.63-2.29-1.6-4.51-2.71-6.62-1.05-1.99-2.56-3.73-4.61-4.73-2.03-.96-4.49-1.19-6.8-.16-1.34.6-2.54,1.8-3.21,3.22-.69,1.41-.95,2.97-.88,4.43.04,1.08.29,2.66.84,4.08.53,1.42,1.26,2.66,1.82,3.3-1.23-1.87-2.15-4.24-2.27-6.58.33,2.55,1.45,4.87,2.74,6.92,1.3,2.06,2.82,3.94,4.41,5.62-1.47-1.59-2.85-3.3-4.03-5.16-1.16-1.85-2.19-3.88-2.6-6.09-.43-2.2-.13-4.56,1-6.41.55-.92,1.35-1.68,2.25-2.14.91-.45,1.89-.65,2.83-.59-1.08.03-2.21.38-3.17,1.08-.96.71-1.68,1.78-2.11,2.99-.9,2.44-.52,5.31.54,7.76,1.05,2.48,2.57,4.7,4.18,6.68,1.64,1.95,3.33,3.79,5.21,5.07.57.39,1.24.74,1.77.92-2.03-.85-3.85-2.59-5.52-4.44-1.68-1.86-3.27-3.97-4.52-6.28-1.25-2.29-2.14-4.93-1.89-7.48.12-1.26.51-2.47,1.13-3.46.63-1,1.52-1.74,2.51-2.12,1.82-.73,3.96-.41,5.58.58,1.66,1.01,2.92,2.66,3.88,4.49.49,1.02.89,2.09,1.21,3.2.66,2.27,1,4.64,1.05,7.01.03,1.05-.04,2.51-.14,3.82-.09,1.31-.22,2.46.04,2.97.21-.67.31-1.44.48-2.08.03.26.04.56.02.87.06-.28.16-.59.16-.86,0,.23,0,.46.05.56.1-.34.07-.84.08-1.12,0-.16-.07-.91-.02-1.11.07.55.1,1.26.18,1.73.04-.19.06-.37.11-.55.03.24-.03.68.04.82.07-.47.11-.89.18-1.38.07-.39.12-.75.11-1.14.03.46,0,1.08.07,1.41.06-.21.07-.43.09-.65,0,.03.02.05.03.05.01-.1.05-.22.05-.32.02,0,.04-.02.06,0h-.04"/>
              <path class="cls-4" d="m27.02,20.66c.06-.45.11-1.09.18-1.5"/>
              <path class="cls-2" d="m14.73,2s-.33.15-.84.57c-.5.41-1.16,1.13-1.63,2.23-.47,1.09-.75,2.52-.61,4.08.13,1.56.66,3.23,1.46,4.81,1.61,3.19,4.04,6.16,6.37,8.57,1.17,1.2,2.36,2.22,3.51,2.86,1.15.65,2.23.9,3.03.86"/>
            </g>
            <path class="cls-2" d="m11.72,11.86s.17.59.59,1.52c.42.94,1.11,2.2,2.05,3.57.94,1.37,2.14,2.84,3.48,4.25,1.34,1.4,2.81,2.8,4.4,3.73"/>
          </g>
        </g>
      </g>
      <g>
        <path class="cls-5" d="m30.17,28.59c4.59-2.37,8.38-6.32,10.62-11.04,1.37-2.88,2.16-6.19,1.41-9.29-.76-3.1-3.36-5.84-6.5-5.97-2.3-.1-4.51,1.2-5.99,3-1.48,1.8-2.31,4.06-2.88,6.33-.71,2.86-1.05,5.79-1.26,8.73-.23,3.17-.28,6.54,1.23,9.32"/>
        <g class="cls-8">
          <g>
            <g>
              <path class="cls-4" d="m34.14,26.74c.43-.29.81-.66,1.15-1.01.72-.77,1.56-1.17,2.17-2.01.75-1.05,1.73-1.9,2.39-3.09,1.19-2.18,2.08-4.55,2.73-6.96.61-2.27.65-4.67-.17-6.88-.84-2.16-2.4-4.13-4.79-5.18-1.39-.61-3.18-.68-4.73-.16-1.57.5-2.93,1.48-3.94,2.64-.76.84-1.69,2.23-2.3,3.69-.62,1.45-.96,2.91-1,3.8.43-2.29,1.41-4.74,3.01-6.6-1.59,2.16-2.39,4.73-2.91,7.2-.52,2.49-.74,5-.78,7.41.07-2.26.28-4.54.74-6.79.46-2.23,1.14-4.49,2.42-6.47,1.24-1.97,3.21-3.56,5.43-4.04,1.1-.25,2.24-.17,3.24.18.99.37,1.84.99,2.48,1.74-.82-.8-1.88-1.43-3.1-1.66-1.22-.24-2.56-.02-3.78.54-1.21.57-2.32,1.45-3.18,2.55-.87,1.09-1.53,2.36-2.03,3.67-.98,2.63-1.46,5.4-1.68,8.06-.2,2.65-.28,5.26.19,7.59.14.7.38,1.46.64,1.99-.87-2.13-.98-4.76-.87-7.36.1-2.62.44-5.35,1.17-8,.72-2.63,1.91-5.29,3.95-7.02,1-.86,2.19-1.46,3.39-1.7,1.21-.25,2.41-.08,3.41.41,1.86.89,3.19,2.73,3.74,4.68.54,1.98.36,4.15-.22,6.23-.35,1.13-.82,2.23-1.38,3.3-1.14,2.19-2.62,4.21-4.32,6-.75.8-1.89,1.82-2.95,2.68-1.05.88-2.02,1.61-2.22,2.15.66-.32,1.31-.8,1.92-1.14-.18.21-.4.43-.65.64.26-.16.56-.31.76-.5-.17.16-.35.33-.38.44.32-.17.69-.56.9-.75.12-.12.64-.71.83-.82-.36.46-.87.98-1.17,1.38.17-.1.33-.22.5-.32-.16.19-.54.47-.59.61.41-.28.75-.56,1.17-.87.35-.24.64-.47.93-.74-.33.35-.81.78-1.02,1.07.2-.11.38-.26.56-.41-.01.03-.02.05-.01.06.08-.06.2-.13.28-.2.01.01.05.02.04.05l-.02-.04"/>
              <path class="cls-4" d="m32.72,26.01c.37-.29.88-.67,1.25-.96"/>
              <path class="cls-2" d="m37.01,2.92s-.35-.16-1.03-.25c-.67-.1-1.7-.09-2.86.36-1.16.43-2.43,1.29-3.45,2.57-1.03,1.27-1.81,2.92-2.36,4.7-1.08,3.57-1.43,7.57-1.45,11.08,0,1.75.14,3.38.53,4.71.38,1.33.99,2.34,1.59,2.93"/>
            </g>
            <path class="cls-2" d="m27.6,7.92s-.29.57-.65,1.58c-.36,1.01-.75,2.46-1.04,4.17-.29,1.71-.46,3.69-.49,5.72-.03,2.02.04,4.14.55,6"/>
          </g>
        </g>
      </g>
      <g>
        <path class="cls-5" d="m32.28,31.21c4.61,1.35,9.61,1.1,13.99-.71,2.68-1.11,5.22-2.89,6.56-5.53,1.34-2.64,1.18-6.26-.92-8.4-1.54-1.57-3.85-2.12-5.96-1.84-2.11.28-4.04,1.31-5.8,2.51-2.21,1.52-4.21,3.34-6.12,5.24-2.07,2.05-4.12,4.36-4.75,7.27"/>
        <g class="cls-8">
          <g>
            <g>
              <path class="cls-4" d="m36.11,32.55c.47.08.96.07,1.42.05.97-.07,1.8.22,2.74.03,1.17-.24,2.38-.19,3.57-.59,2.17-.75,4.24-1.86,6.16-3.15,1.81-1.22,3.27-2.92,3.98-4.99.69-2.05.73-4.34-.21-6.54-.55-1.27-1.66-2.49-3.03-3.18-1.37-.71-2.92-.97-4.36-.85-1.06.07-2.61.41-3.95,1.03-1.35.61-2.49,1.42-3.05,2.01,1.7-1.33,3.94-2.41,6.23-2.62-2.49.43-4.64,1.72-6.52,3.11-1.89,1.41-3.56,3.03-5.05,4.7,1.41-1.54,2.94-3.01,4.64-4.28,1.69-1.26,3.57-2.41,5.7-2.93,2.11-.54,4.46-.28,6.21.88.88.56,1.57,1.36,2,2.23.42.88.62,1.83.6,2.74-.09-1.05-.42-2.13-1.08-3.08-.66-.94-1.66-1.69-2.82-2.11-1.16-.44-2.46-.57-3.74-.4-1.28.17-2.53.61-3.68,1.2-2.31,1.19-4.33,2.83-6.1,4.54-1.74,1.73-3.37,3.51-4.43,5.43-.32.58-.59,1.26-.72,1.79.63-2.03,2.12-3.94,3.78-5.69,1.66-1.77,3.55-3.46,5.68-4.84,2.11-1.37,4.61-2.43,7.07-2.24,1.21.1,2.37.48,3.31,1.11.94.64,1.62,1.52,1.99,2.48.7,1.77.55,3.83-.2,5.53-.76,1.7-2.16,3.12-3.8,4.2-.92.56-1.91,1.03-2.94,1.41-2.12.79-4.37,1.23-6.63,1.36-1,.06-2.4.02-3.66-.06-1.26-.07-2.37-.19-2.86.07.64.21,1.38.3,2,.46-.25.03-.54.05-.84.03.27.06.57.15.83.15-.22,0-.44,0-.54.06.32.1.81.06,1.08.06.16,0,.88-.08,1.07-.04-.53.09-1.21.12-1.67.21.18.04.36.06.53.11-.23.03-.66-.02-.79.05.46.07.86.1,1.34.16.38.06.73.1,1.1.09-.45.03-1.04.01-1.36.09.2.06.42.07.63.08-.03.01-.04.02-.05.04.09,0,.22.04.31.04,0,.02.02.04,0,.06v-.04"/>
              <path class="cls-4" d="m35.64,31.05c.43.05,1.04.1,1.44.15"/>
              <path class="cls-2" d="m52.44,17.91s-.14-.33-.53-.82c-.38-.5-1.06-1.16-2.1-1.63-1.03-.47-2.42-.74-3.91-.55-1.5.18-3.06.81-4.53,1.7-2.94,1.78-5.6,4.36-7.73,6.8-1.06,1.22-1.92,2.45-2.43,3.62-.52,1.16-.67,2.23-.58,3.01"/>
            </g>
            <path class="cls-2" d="m43.02,15.11s-.56.2-1.43.67c-.87.47-2.04,1.23-3.28,2.25-1.25,1.01-2.56,2.29-3.8,3.69-1.24,1.4-2.46,2.93-3.19,4.55"/>
          </g>
        </g>
      </g>
      <path class="cls-3" d="m20.05,25.89c-.02.12-.04.25-.05.37-.1.97-.14,1.96.09,2.9s.77,1.85,1.62,2.34c.44.25.94.39,1.35.68,1.05.76,1.48,1.71,2.94,1.71,2.01,0,4.88,0,6.61-1.21s2.03-3.42,2.23-5.3.89-2.4-.6-3.94c-.87-.9-1.5-2.03-2.49-2.85-1.58-1.31-4.1-1.65-6.1-1.57-.23,0-.45.04-.67.1-.65.17-1.21.57-1.7,1.02-1.56,1.42-2.9,3.64-3.24,5.75Z"/>
      <path class="cls-1" d="m40.67,17.19c-.14.18-.28.36-.44.53-.14.14-.27.19-.43.29-.18.12-.28.32-.39.49-.08.13-.18.27-.3.36-.06.05-.13.1-.19.16-.07.07-.17.14-.24.21-.06.07-.06.09-.13.14-.05.03-.1.05-.14.08s-.09.08-.14.1c-.06.02-.12,0-.18.02-.1.04-.19.13-.29.18-.13.07-.22.17-.35.24-.07.03-.13.05-.2.09-.15.08-.29.18-.43.27-.26.16-.52.33-.75.52-.2.17-.44.28-.65.43-.1.08-.21.14-.32.2-.12.08-.24.17-.36.25-.21.14-.41.34-.6.51-.21.18-.43.37-.65.53-.19.15-.41.3-.54.51-.03.06-.05.12-.09.17-.04.07-.12.11-.16.18-.08.12-.14.27-.22.39-.09.14-.14.3-.22.44-.06.1-.12.18-.16.3-.08.27-.18.54-.26.81-.07.24-.17.47-.23.72-.04.16-.1.31-.16.45-.03.07-.05.14-.09.2s-.1.15-.13.22c-.03.08-.03.15-.06.23-.04.1,0,.19-.02.28-.01.12-.11.2-.16.3-.05.09-.1.18-.15.27-.08.14-.12.28-.18.42-.05.11-.07.23-.11.33-.03.08-.08.15-.08.23,0,.11,0,.19-.01.29,0,.03-.03.07-.04.11-.01.06.02.12,0,.18-.02.07-.07.15-.1.22-.06.15-.13.31-.18.46-.12.31-.23.62-.33.93-.08.24-.17.48-.25.72-.09.25-.2.49-.28.74-.1.3-.19.62-.26.94-.04-.96-.02-1.92.1-2.86.15-1.16.46-2.28.94-3.3.21-.45.38-.9.52-1.39.13-.46.23-.94.36-1.4.12-.45.27-.9.48-1.3.16-.3.37-.73.68-.86.12-.05.21-.09.29-.19.15-.18.39-.32.57-.49.53-.48,1.06-.96,1.59-1.44.23-.21.48-.39.71-.61s.43-.48.68-.69c.09-.08.2-.12.3-.2s.19-.17.28-.25c.21-.18.47-.34.66-.54.23-.24.48-.45.69-.72.09-.13.2-.23.32-.33.15-.13.26-.29.41-.41.21-.17.42-.36.65-.5.16-.1.3-.27.49-.29.1-.01.21.02.31-.02.08-.03.16-.13.23-.18.15-.1.31-.21.46-.32s.27-.22.4-.36.24-.31.41-.39c.05.13.05.37.04.52,0,.15-.05.34-.08.48-.09.31-.21.63-.43.88-.14.17-.28.34-.41.51Z"/>
      <path class="cls-1" d="m26.96,12.49c.06-.1.08-.21.17-.31.03-.04.07-.07.1-.11.02-.03.08-.15.09-.16.13-.1.21.15.29.26.02.03.08.12.09.15.02.07,0,.14.01.21.04.16.11.31.15.45.08.3.03.68.05.99s-.13.65-.23.94c-.05.14-.09.28-.13.41-.05.16-.14.31-.19.48-.05.14-.14.28-.19.41-.06.15-.08.32-.11.48-.03.13-.08.27-.09.4,0,.17-.03.34-.08.5-.06.19-.09.37-.11.56-.01.18-.1.39-.16.56-.11.33-.1.66-.19,1s-.15.76-.2,1.11c0,.06-.05.16-.07.23-.02.09-.01.18-.03.27,0,.03-.04.03-.05.07,0,.05.01.1,0,.15,0,.06-.04.14-.06.21-.03.14-.12.29-.15.45-.01.08-.04.17-.05.25-.01.09.03.19.01.28-.02.11-.05.16-.04.28,0,.08.03.2.02.28s-.05.13-.05.22c0,.08.04.17.02.25-.02.07-.05.07-.07.16-.03.18.02.42.04.6-.17-.7-.32-1.4-.43-2.09-.13-.85-.18-1.67-.14-2.43.02-.33.01-.67,0-1.02,0-.14-.04-.27-.05-.41-.01-.22,0-.45-.06-.66-.02-.08-.05-.14-.06-.22-.03-.26-.03-.54-.04-.8,0-.18-.03-.33.03-.5.05-.14.13-.26.21-.38.19-.28.41-.55.57-.85.06-.1.11-.23.15-.33.02-.06.05-.14.07-.2.03-.09.08-.16.11-.23s.02-.16.05-.24c.02-.05.05-.12.06-.16.04-.15.04-.31.12-.45.13-.24.24-.5.36-.73.05-.1.12-.18.19-.27.02-.02.03-.04.04-.06Z"/>
      <path class="cls-1" d="m15.82,16.22c.1.13.2.28.26.41s.18.27.25.41c.15.29.35.58.54.86.1.15.24.3.36.45.08.09.18.17.22.28.02.04.01.09.03.13.06.14.23.26.33.37.14.15.29.29.43.43.41.43.82.87,1.21,1.32.19.22.39.42.58.64.08.09.13.2.19.29.08.11.17.22.25.33.13.18.26.35.38.54.09.14.2.27.24.44.01.06,0,.11,0,.18,0,.05,0,.09.02.13.05.19.1.38.18.57.15.36.41.79.89,1.34.55.64,1.28,1.36,2.02,2.07.18.18.37.36.54.53.19.18.37.37.56.55.23.22.48.45.73.68-.83-.67-1.65-1.34-2.42-2.01-.95-.83-1.82-1.65-2.57-2.42-.33-.34-.67-.67-1.04-1.03-.36-.34-.74-.68-1.1-1.02-.35-.33-.69-.66-.98-.97-.31-.33-.55-.63-.7-.87-.17-.27-.32-.55-.46-.84-.1-.21-.18-.44-.31-.64s-.28-.33-.4-.53c-.13-.23-.25-.46-.38-.69-.12-.23-.26-.4-.33-.65s-.31-.43-.48-.62c-.1-.11-.2-.22-.3-.34-.08-.09-.12-.19-.18-.28-.06-.1-.12-.18-.18-.28-.05-.08-.07-.15-.11-.23-.03-.07-.07-.1-.1-.17s0-.15-.04-.22c-.03-.06-.07-.08-.09-.13-.03-.07-.02-.17-.04-.25-.02-.07-.06-.09-.09-.14-.05-.14-.04-.31-.1-.45s-.1-.26-.13-.41c-.02-.1-.03-.21-.06-.31-.02-.09-.08-.14-.11-.23-.06-.14-.06-.33-.09-.49-.03-.17-.09-.27-.14-.41-.05-.15-.06-.33-.09-.49s-.06-.32-.09-.49-.14-.29-.15-.45c.12.07.26.35.33.48.13.24.23.47.34.72.08.2.2.41.31.6s.23.4.37.56c.25.28.4.66.64.95.11.13.24.26.34.4.08.12.09.26.15.39.04.08.1.15.15.23.14.23.18.5.34.72.02.02.03.04.05.06Z"/>
      <path class="cls-1" d="m43.76,31.28c-.13.02-.25.03-.39.04-.49.03-.98.05-1.47.08-.21.01-.44,0-.65.06-.38.11-.78.13-1.17.21-.45.09-.89.18-1.34.28-.89.19-1.77.36-2.4.33-.59-.03-.99-.19-1.35-.36-.36-.17-.68-.37-1.11-.49-.42-.12-.97-.17-1.7-.07-.85.11-1.85.37-2.85.64-.25.07-.49.13-.74.2-.26.07-.5.12-.76.2-.31.08-.63.18-.96.28.98-.42,1.95-.81,2.92-1.15,1.18-.42,2.33-.76,3.39-1,.46-.1.93-.22,1.42-.37.11-.03.23-.09.34-.1.02,0,.03,0,.05,0,.06-.01.09-.05.14-.07.13-.06.25-.13.37-.19.11-.06.22-.09.34-.11.13-.03.24-.09.37-.12.2-.05.39-.06.59-.09.18-.04.38-.03.56-.04.51-.03,1,.09,1.51.14.08,0,.16.05.24.06.07,0,.13.02.2.04.11.03.23.07.34.1.14.04.28.07.42.1.04,0,.08,0,.12.01.03,0,.07.03.1.03.08.02.17,0,.26.02.58.1,1.18-.02,1.78-.05.36-.02.77.01,1.12-.07.45-.11.89-.26,1.33-.37.41-.1.82-.21,1.22-.36.21-.08.41-.19.62-.28.19-.08.4-.14.59-.22.29-.12.59-.24.87-.37s.57-.29.88-.39c.23-.08.54-.18.79-.12-.02.11-.23.24-.32.31-.11.1-.23.2-.35.29-.33.25-.61.56-.95.8-.91.66-1.89,1.32-2.91,1.72-.29.11-.58.18-.87.25-.12.03-.23.11-.36.15-.08.02-.16.04-.24.05Z"/>
      <path class="cls-1" d="m35.03,29.32c.33,0,.6-.08.92-.17.27-.08.56-.11.83-.18.31-.07.64-.06.94-.15.44-.12.9-.19,1.35-.28.39-.08.76-.2,1.15-.29s.72-.28,1.06-.43.74-.24,1.1-.37c.32-.11.68-.13,1-.2.2-.05.5-.16.71-.08-.01.11-.19.16-.27.2-.17.09-.32.18-.48.28-.29.18-.6.3-.88.49-.51.36-1.09.57-1.64.85-.16.08-.33.11-.49.17-.2.07-.42.12-.62.19-.38.13-.78.21-1.17.31-.42.11-.86.27-1.3.28-.19,0-.36.06-.56.06-.22,0-.41.05-.62.06-.54.02-1.02.31-1.48.55"/>
    </g>
  </g>
</svg>