<?xml version="1.0" encoding="UTF-8"?>
<svg id="Layer_1" data-name="Layer 1" xmlns="http://www.w3.org/2000/svg" viewBox="0 0 519.97 111.4">
  <defs>
    <style>
      .cls-1 {
        fill: #4d4d4d;
        stroke-width: 0px;
      }
    </style>
  </defs>
  <path class="cls-1" d="m.39,45.8c.8-2.55,2.8-3.63,3.92-5.81.78-1.53.56-3.17.98-4.84,1.1-4.39,4.72-8.64,8-10.75,10.56-6.78,21.03-15.18,32.79-18.35,11.72-3.15,23.9-4.6,35.85-5.55,10.79-.86,22.25-.78,32.88,1.45,6.37,1.34,12.75,2.95,19.18,3.85,7.06,1,13.91,3.09,20.97,3.97,8.33,1.03,16.66.72,24.98,1.68,6.24.72,12.6.69,18.88,1.13,17.66,1.22,35.58.25,53.27.25,14.08,0,28.25.56,42.32.08,10.4-.35,20.01-4.72,30.15-6.87,8.73-1.85,17.63-1.08,26.46-1.13,12.35-.06,24.39,2.08,36.54,4.5,14.94,2.97,30.03,4.7,45.04,7.09,11.35,1.81,22.6,2.97,34.03,4.42,22.39,2.85,44.53,15.15,51.71,37.92,1.91,6.04,2.59,12.91-.39,18.5-4.69,8.83-16.12,11.06-26.06,12.19-54.3,6.16-108.22,6.53-162.73,7.92-7.72.2-15.43,2.74-22.98,4.59-15.47,3.8-31.15,7.75-46.94,8.84-14.49,1-29.14.2-43.66.2-8.99,0-18.1.54-27.04-.56-39.76-4.88-82.82-5.81-122.83-1.51-11.77,1.26-23.88,3.15-35.27-.07-16.86-4.77-17.66-18.11-25.57-30.53C.85,72.12.23,63.2.25,55.65c0-2.68-.65-7.34.14-9.85Z"/>
</svg>