<?xml version="1.0" encoding="UTF-8"?>
<svg id="Layer_1" data-name="Layer 1" xmlns="http://www.w3.org/2000/svg" viewBox="0 0 378.69 181.08">
  <defs>
    <style>
      .cls-1 {
        fill: #4d4d4d;
        stroke-width: 0px;
      }
    </style>
  </defs>
  <path class="cls-1" d="m46.15,13.12c28.58-17.46,64.64-16.73,94.6-2.34,14.57,7,27.33,20.12,42.13,25.5,18.44,6.71,42.08,6.56,61.46,10.86,40.89,9.07,80.97,21.82,119.57,38.06,3.46,1.45,7,3.01,9.58,5.72,2.77,2.92,4.15,6.9,4.78,10.88,2.55,16.22-6.62,32.5-19.34,42.88-12.72,10.38-28.56,16-44.08,21.37-19.95,6.91-40.24,13.81-61.32,14.91-22.73,1.18-36.57-7.77-56.43-15.89-16.48-6.74-36.43-9.04-54.04-10.07-40.49-2.36-85.21,4.81-121.83-16.84-9.68-5.72-9.84-11.84-12.87-21.12-2.07-6.35-7.15-13.46-7.97-20.15C-3.48,65.41,22.98,27.28,46.15,13.12Z"/>
</svg>